<svg xmlns="http://www.w3.org/2000/svg" xmlns:xlink="http://www.w3.org/1999/xlink" width="500" zoomAndPan="magnify" viewBox="0 0 375 374.999991" height="500" preserveAspectRatio="xMidYMid meet" version="1.0"><defs><g/><clipPath id="82774927d0"><path d="M 59 80.316406 L 316 80.316406 L 316 346.566406 L 59 346.566406 Z M 59 80.316406 " clip-rule="nonzero"/></clipPath><clipPath id="f4445a95f2"><path d="M 67 85.972656 L 308 85.972656 L 308 335.722656 L 67 335.722656 Z M 67 85.972656 " clip-rule="nonzero"/></clipPath><clipPath id="3d9a6df870"><path d="M 53.265625 206.003906 L 321.242188 206.003906 L 321.242188 260.625 L 53.265625 260.625 Z M 53.265625 206.003906 " clip-rule="nonzero"/></clipPath><clipPath id="55c488da79"><path d="M 320.234375 206.003906 L 54.765625 206.003906 C 54.445312 206.003906 54.148438 206.171875 53.976562 206.445312 C 53.808594 206.71875 53.792969 207.058594 53.9375 207.347656 L 66.25 231.972656 C 66.671875 232.816406 66.671875 233.8125 66.25 234.65625 L 53.9375 259.28125 C 53.792969 259.570312 53.808594 259.910156 53.976562 260.183594 C 54.148438 260.457031 54.445312 260.625 54.765625 260.625 L 320.234375 260.625 C 320.554688 260.625 320.851562 260.457031 321.023438 260.183594 C 321.191406 259.910156 321.207031 259.570312 321.0625 259.28125 L 308.75 234.65625 C 308.328125 233.8125 308.328125 232.816406 308.75 231.972656 L 321.0625 207.347656 C 321.207031 207.058594 321.191406 206.71875 321.023438 206.445312 C 320.851562 206.171875 320.554688 206.003906 320.234375 206.003906 " clip-rule="nonzero"/></clipPath><clipPath id="17edb6d5a2"><path d="M 53.289062 206.003906 L 321.253906 206.003906 L 321.253906 260.753906 L 53.289062 260.753906 Z M 53.289062 206.003906 " clip-rule="nonzero"/></clipPath><clipPath id="27d0d196f6"><path d="M 320.242188 206.003906 L 54.789062 206.003906 C 54.46875 206.003906 54.171875 206.171875 54 206.445312 C 53.832031 206.71875 53.816406 207.0625 53.960938 207.351562 L 66.273438 232.035156 C 66.695312 232.882812 66.695312 233.878906 66.273438 234.726562 L 53.960938 259.410156 C 53.816406 259.699219 53.832031 260.039062 54 260.316406 C 54.171875 260.589844 54.46875 260.753906 54.789062 260.753906 L 320.242188 260.753906 C 320.5625 260.753906 320.863281 260.589844 321.03125 260.316406 C 321.199219 260.039062 321.214844 259.699219 321.070312 259.410156 L 308.757812 234.726562 C 308.335938 233.878906 308.335938 232.882812 308.757812 232.035156 L 321.070312 207.351562 C 321.214844 207.0625 321.199219 206.71875 321.03125 206.445312 C 320.863281 206.171875 320.5625 206.003906 320.242188 206.003906 " clip-rule="nonzero"/></clipPath><clipPath id="8a86a2976f"><path d="M 97 149.726562 L 278 149.726562 L 278 336.476562 L 97 336.476562 Z M 97 149.726562 " clip-rule="nonzero"/></clipPath><clipPath id="ec06e2b362"><path d="M 115.929688 141.753906 L 259.179688 141.753906 L 259.179688 285.003906 L 115.929688 285.003906 Z M 115.929688 141.753906 " clip-rule="nonzero"/></clipPath><clipPath id="92dee1791a"><path d="M 166.324219 28.429688 L 208.324219 28.429688 L 208.324219 68.929688 L 166.324219 68.929688 Z M 166.324219 28.429688 " clip-rule="nonzero"/></clipPath><clipPath id="4a1ac51423"><path d="M 218 39 L 251 39 L 251 72 L 218 72 Z M 218 39 " clip-rule="nonzero"/></clipPath><clipPath id="c3e00edeb4"><path d="M 220.34375 36.46875 L 252.878906 41.996094 L 247.601562 73.050781 L 215.070312 67.523438 Z M 220.34375 36.46875 " clip-rule="nonzero"/></clipPath><clipPath id="092bec2771"><path d="M 220.34375 36.46875 L 252.878906 41.996094 L 247.601562 73.050781 L 215.070312 67.523438 Z M 220.34375 36.46875 " clip-rule="nonzero"/></clipPath><clipPath id="e883d1033f"><path d="M 124 39 L 157 39 L 157 72 L 124 72 Z M 124 39 " clip-rule="nonzero"/></clipPath><clipPath id="a57c162f67"><path d="M 122.34375 42.097656 L 154.835938 36.324219 L 160.347656 67.335938 L 127.859375 73.113281 Z M 122.34375 42.097656 " clip-rule="nonzero"/></clipPath><clipPath id="8fa72db367"><path d="M 122.34375 42.097656 L 154.835938 36.324219 L 160.347656 67.335938 L 127.859375 73.113281 Z M 122.34375 42.097656 " clip-rule="nonzero"/></clipPath><clipPath id="5569b2174e"><path d="M 260 55 L 285 55 L 285 80 L 260 80 Z M 260 55 " clip-rule="nonzero"/></clipPath><clipPath id="7c3e927ec5"><path d="M 265.425781 50.863281 L 287.511719 60.261719 L 278.410156 81.652344 L 256.324219 72.257812 Z M 265.425781 50.863281 " clip-rule="nonzero"/></clipPath><clipPath id="82d77a2a7f"><path d="M 265.425781 50.863281 L 287.511719 60.261719 L 278.410156 81.652344 L 256.324219 72.257812 Z M 265.425781 50.863281 " clip-rule="nonzero"/></clipPath><clipPath id="d68a1cfd2b"><path d="M 260 55 L 284 55 L 284 80 L 260 80 Z M 260 55 " clip-rule="nonzero"/></clipPath><clipPath id="f689584e83"><path d="M 265.425781 50.863281 L 287.511719 60.261719 L 278.410156 81.652344 L 256.324219 72.257812 Z M 265.425781 50.863281 " clip-rule="nonzero"/></clipPath><clipPath id="eb0e9657c6"><path d="M 265.425781 50.863281 L 287.511719 60.261719 L 278.410156 81.652344 L 256.324219 72.257812 Z M 265.425781 50.863281 " clip-rule="nonzero"/></clipPath><clipPath id="eea9163b8f"><path d="M 91 55 L 115 55 L 115 80 L 91 80 Z M 91 55 " clip-rule="nonzero"/></clipPath><clipPath id="c825a46678"><path d="M 87.46875 60.285156 L 109.53125 50.835938 L 118.683594 72.210938 L 96.621094 81.65625 Z M 87.46875 60.285156 " clip-rule="nonzero"/></clipPath><clipPath id="f768f0da09"><path d="M 87.46875 60.285156 L 109.53125 50.835938 L 118.683594 72.210938 L 96.621094 81.65625 Z M 87.46875 60.285156 " clip-rule="nonzero"/></clipPath><clipPath id="13d6c51203"><path d="M 90 55 L 115 55 L 115 80 L 90 80 Z M 90 55 " clip-rule="nonzero"/></clipPath><clipPath id="90b20c882d"><path d="M 87.46875 60.285156 L 109.53125 50.835938 L 118.683594 72.210938 L 96.621094 81.65625 Z M 87.46875 60.285156 " clip-rule="nonzero"/></clipPath><clipPath id="4f2de13468"><path d="M 87.46875 60.285156 L 109.53125 50.835938 L 118.683594 72.210938 L 96.621094 81.65625 Z M 87.46875 60.285156 " clip-rule="nonzero"/></clipPath><clipPath id="3b09725e84"><path d="M 263.570312 214.363281 L 302.570312 214.363281 L 302.570312 251.863281 L 263.570312 251.863281 Z M 263.570312 214.363281 " clip-rule="nonzero"/></clipPath><clipPath id="94dbfa0ba2"><path d="M 72.707031 214.90625 L 111.707031 214.90625 L 111.707031 251.65625 L 72.707031 251.65625 Z M 72.707031 214.90625 " clip-rule="nonzero"/></clipPath><clipPath id="1a2d869d1b"><path d="M 129.039062 164 L 240 164 L 240 280 L 129.039062 280 Z M 129.039062 164 " clip-rule="nonzero"/></clipPath><clipPath id="36ba48a26a"><path d="M 179 211 L 246.789062 211 L 246.789062 234 L 179 234 Z M 179 211 " clip-rule="nonzero"/></clipPath></defs><path fill="#4c4b96" d="M 187.402344 85.535156 C 227.648438 85.535156 266.71875 90.488281 304.082031 99.804688 C 308.398438 100.871094 311.117188 105.132812 310.265625 109.496094 C 292.835938 196.722656 251.738281 275.425781 193.960938 338.632812 C 190.65625 342.253906 184.953125 342.253906 181.648438 338.632812 C 123.601562 275.476562 82.347656 196.722656 64.703125 109.390625 C 63.851562 105.023438 66.570312 100.765625 70.886719 99.699219 C 108.199219 90.488281 147.214844 85.535156 187.402344 85.535156 Z M 187.402344 85.535156 " fill-opacity="1" fill-rule="nonzero"/><g clip-path="url(#82774927d0)"><path fill="#4c4b96" d="M 187.402344 80.316406 C 227.21875 80.316406 266.929688 85.164062 305.308594 94.746094 C 312.34375 96.503906 316.714844 103.425781 315.328125 110.457031 C 298.113281 196.722656 257.496094 276.863281 197.796875 342.148438 C 195.238281 344.96875 191.613281 346.566406 187.832031 346.566406 C 184.046875 346.566406 180.421875 344.96875 177.863281 342.199219 C 117.953125 276.96875 77.070312 196.828125 59.691406 110.457031 C 58.253906 103.375 62.679688 96.453125 69.714844 94.695312 C 108.039062 85.164062 147.640625 80.316406 187.402344 80.316406 Z M 187.832031 336.183594 C 188.363281 336.183594 189.324219 336.023438 190.175781 335.171875 C 248.539062 271.273438 288.304688 192.835938 305.148438 108.433594 C 305.46875 106.835938 304.453125 105.238281 302.800781 104.8125 C 265.222656 95.441406 226.367188 90.699219 187.402344 90.699219 C 148.492188 90.699219 109.742188 95.441406 72.164062 104.757812 C 70.511719 105.183594 69.5 106.730469 69.820312 108.378906 C 86.875 192.886719 126.851562 271.324219 185.484375 335.117188 C 186.285156 336.023438 187.296875 336.183594 187.832031 336.183594 Z M 187.832031 336.183594 " fill-opacity="1" fill-rule="nonzero"/></g><path fill="#3e4166" d="M 187.285156 90.871094 C 225.078125 90.871094 261.769531 95.515625 296.859375 104.253906 C 300.914062 105.253906 303.46875 109.25 302.667969 113.347656 C 286.300781 195.164062 247.703125 268.992188 193.441406 328.28125 C 190.339844 331.679688 184.984375 331.679688 181.878906 328.28125 C 127.367188 269.039062 88.625 195.164062 72.054688 113.246094 C 71.253906 109.152344 73.804688 105.15625 77.859375 104.15625 C 112.902344 95.515625 149.542969 90.871094 187.285156 90.871094 Z M 187.285156 90.871094 " fill-opacity="1" fill-rule="nonzero"/><g clip-path="url(#f4445a95f2)"><path fill="#3e4166" d="M 187.285156 85.972656 C 224.679688 85.972656 261.972656 90.519531 298.011719 99.511719 C 304.621094 101.160156 308.722656 107.652344 307.421875 114.246094 C 291.253906 195.164062 253.109375 270.339844 197.046875 331.578125 C 194.644531 334.226562 191.242188 335.722656 187.6875 335.722656 C 184.132812 335.722656 180.726562 334.226562 178.324219 331.628906 C 122.0625 270.441406 83.667969 195.265625 67.347656 114.246094 C 65.996094 107.601562 70.152344 101.109375 76.761719 99.460938 C 112.75 90.519531 149.945312 85.972656 187.285156 85.972656 Z M 187.6875 325.984375 C 188.1875 325.984375 189.089844 325.835938 189.890625 325.035156 C 244.703125 265.09375 282.042969 191.519531 297.863281 112.347656 C 298.164062 110.847656 297.210938 109.351562 295.660156 108.949219 C 260.371094 100.160156 223.878906 95.714844 187.285156 95.714844 C 150.746094 95.714844 114.351562 100.160156 79.0625 108.902344 C 77.511719 109.300781 76.558594 110.75 76.859375 112.296875 C 92.878906 191.570312 130.421875 265.144531 185.484375 324.984375 C 186.234375 325.835938 187.1875 325.984375 187.6875 325.984375 Z M 187.6875 325.984375 " fill-opacity="1" fill-rule="nonzero"/></g><g clip-path="url(#3d9a6df870)"><g clip-path="url(#55c488da79)"><path fill="#ffffff" d="M 53.265625 206.003906 L 321.242188 206.003906 L 321.242188 260.625 L 53.265625 260.625 Z M 53.265625 206.003906 " fill-opacity="1" fill-rule="nonzero"/></g></g><g clip-path="url(#17edb6d5a2)"><g clip-path="url(#27d0d196f6)"><path stroke-linecap="butt" transform="matrix(0.750098, 0, 0, 0.751931, 53.290211, 206.005182)" fill="none" stroke-linejoin="miter" d="M 355.889368 -0.0016962 L 1.998208 -0.0016962 C 1.57118 -0.0016962 1.175399 0.221687 0.946262 0.585334 C 0.722333 0.948981 0.701502 1.406137 0.894185 1.790564 L 17.308703 34.61749 C 17.871129 35.744796 17.871129 37.06951 17.308703 38.196815 L 0.894185 71.023742 C 0.701502 71.408168 0.722333 71.86013 0.946262 72.228971 C 1.175399 72.592618 1.57118 72.810807 1.998208 72.810807 L 355.889368 72.810807 C 356.316396 72.810807 356.717385 72.592618 356.941314 72.228971 C 357.165243 71.86013 357.186073 71.408168 356.99339 71.023742 L 340.578873 38.196815 C 340.016447 37.06951 340.016447 35.744796 340.578873 34.61749 L 356.99339 1.790564 C 357.186073 1.406137 357.165243 0.948981 356.941314 0.585334 C 356.717385 0.221687 356.316396 -0.0016962 355.889368 -0.0016962 " stroke="#4c4b96" stroke-width="14" stroke-opacity="1" stroke-miterlimit="4"/></g></g><path fill="#4c4b96" d="M 187.335938 153.386719 C 215.5625 153.386719 242.96875 156.863281 269.179688 163.398438 C 272.207031 164.144531 274.113281 167.132812 273.515625 170.195312 C 261.289062 231.375 232.464844 286.578125 191.933594 330.914062 C 189.617188 333.453125 185.617188 333.453125 183.296875 330.914062 C 142.582031 286.617188 113.640625 231.375 101.265625 170.121094 C 100.667969 167.058594 102.574219 164.070312 105.605469 163.324219 C 131.777344 156.863281 159.144531 153.386719 187.335938 153.386719 Z M 187.335938 153.386719 " fill-opacity="1" fill-rule="nonzero"/><g clip-path="url(#8a86a2976f)"><path fill="#4c4b96" d="M 187.335938 149.726562 C 215.265625 149.726562 243.121094 153.128906 270.039062 159.851562 C 274.976562 161.082031 278.039062 165.9375 277.070312 170.867188 C 264.992188 231.375 236.5 287.585938 194.625 333.378906 C 192.832031 335.359375 190.289062 336.476562 187.636719 336.476562 C 184.980469 336.476562 182.4375 335.359375 180.644531 333.414062 C 138.617188 287.660156 109.941406 231.449219 97.753906 170.867188 C 96.742188 165.902344 99.847656 161.046875 104.78125 159.8125 C 131.664062 153.128906 159.445312 149.726562 187.335938 149.726562 Z M 187.636719 329.195312 C 188.007812 329.195312 188.683594 329.082031 189.28125 328.484375 C 230.21875 283.664062 258.113281 228.648438 269.925781 169.449219 C 270.152344 168.328125 269.441406 167.207031 268.28125 166.910156 C 241.921875 160.335938 214.667969 157.011719 187.335938 157.011719 C 160.042969 157.011719 132.859375 160.335938 106.5 166.871094 C 105.34375 167.171875 104.632812 168.253906 104.855469 169.410156 C 116.820312 228.6875 144.863281 283.703125 185.988281 328.449219 C 186.550781 329.082031 187.261719 329.195312 187.636719 329.195312 Z M 187.636719 329.195312 " fill-opacity="1" fill-rule="nonzero"/></g><g clip-path="url(#ec06e2b362)"><path fill="#4c4b96" d="M 259.179688 213.378906 C 259.179688 214.550781 259.148438 215.722656 259.09375 216.894531 C 259.035156 218.066406 258.949219 219.234375 258.832031 220.398438 C 258.71875 221.566406 258.574219 222.730469 258.402344 223.890625 C 258.230469 225.050781 258.03125 226.203125 257.800781 227.351562 C 257.574219 228.503906 257.316406 229.644531 257.03125 230.785156 C 256.746094 231.921875 256.433594 233.050781 256.09375 234.171875 C 255.753906 235.292969 255.386719 236.40625 254.992188 237.507812 C 254.597656 238.613281 254.175781 239.707031 253.726562 240.789062 C 253.277344 241.871094 252.804688 242.945312 252.300781 244.003906 C 251.800781 245.0625 251.273438 246.109375 250.722656 247.144531 C 250.167969 248.175781 249.589844 249.195312 248.988281 250.203125 C 248.386719 251.207031 247.757812 252.199219 247.105469 253.171875 C 246.457031 254.148438 245.78125 255.105469 245.082031 256.046875 C 244.386719 256.988281 243.664062 257.914062 242.921875 258.816406 C 242.175781 259.722656 241.410156 260.613281 240.625 261.480469 C 239.835938 262.347656 239.027344 263.199219 238.199219 264.027344 C 237.371094 264.855469 236.523438 265.664062 235.652344 266.449219 C 234.785156 267.238281 233.898438 268.003906 232.992188 268.746094 C 232.085938 269.492188 231.160156 270.210938 230.21875 270.910156 C 229.277344 271.609375 228.320312 272.28125 227.347656 272.933594 C 226.371094 273.585938 225.382812 274.210938 224.375 274.816406 C 223.371094 275.417969 222.351562 275.996094 221.316406 276.546875 C 220.285156 277.101562 219.238281 277.625 218.175781 278.128906 C 217.117188 278.628906 216.046875 279.105469 214.964844 279.554688 C 213.878906 280 212.785156 280.421875 211.683594 280.816406 C 210.578125 281.210938 209.464844 281.582031 208.34375 281.921875 C 207.222656 282.261719 206.09375 282.574219 204.957031 282.859375 C 203.820312 283.144531 202.675781 283.398438 201.527344 283.628906 C 200.378906 283.855469 199.222656 284.058594 198.0625 284.230469 C 196.902344 284.402344 195.742188 284.546875 194.574219 284.660156 C 193.40625 284.773438 192.238281 284.859375 191.066406 284.917969 C 189.898438 284.976562 188.726562 285.003906 187.554688 285.003906 C 186.382812 285.003906 185.210938 284.976562 184.039062 284.917969 C 182.867188 284.859375 181.699219 284.773438 180.53125 284.660156 C 179.367188 284.546875 178.203125 284.402344 177.042969 284.230469 C 175.882812 284.058594 174.730469 283.855469 173.578125 283.628906 C 172.429688 283.398438 171.285156 283.144531 170.148438 282.859375 C 169.011719 282.574219 167.882812 282.261719 166.761719 281.921875 C 165.640625 281.582031 164.527344 281.210938 163.421875 280.816406 C 162.320312 280.421875 161.226562 280 160.144531 279.554688 C 159.0625 279.105469 157.988281 278.628906 156.929688 278.128906 C 155.871094 277.625 154.824219 277.101562 153.789062 276.546875 C 152.753906 275.996094 151.734375 275.417969 150.730469 274.816406 C 149.726562 274.210938 148.734375 273.585938 147.761719 272.933594 C 146.785156 272.28125 145.828125 271.609375 144.886719 270.910156 C 143.945312 270.210938 143.019531 269.492188 142.113281 268.746094 C 141.207031 268.003906 140.320312 267.238281 139.453125 266.449219 C 138.585938 265.664062 137.734375 264.855469 136.90625 264.027344 C 136.078125 263.199219 135.269531 262.347656 134.484375 261.480469 C 133.695312 260.613281 132.929688 259.722656 132.1875 258.816406 C 131.441406 257.914062 130.722656 256.988281 130.023438 256.046875 C 129.324219 255.105469 128.652344 254.148438 128 253.171875 C 127.347656 252.199219 126.722656 251.207031 126.117188 250.203125 C 125.515625 249.195312 124.9375 248.175781 124.386719 247.144531 C 123.832031 246.109375 123.304688 245.0625 122.804688 244.003906 C 122.304688 242.945312 121.828125 241.871094 121.378906 240.789062 C 120.933594 239.707031 120.511719 238.613281 120.117188 237.507812 C 119.71875 236.40625 119.351562 235.292969 119.011719 234.171875 C 118.671875 233.050781 118.359375 231.921875 118.074219 230.785156 C 117.789062 229.644531 117.535156 228.503906 117.304688 227.351562 C 117.074219 226.203125 116.875 225.050781 116.703125 223.890625 C 116.53125 222.730469 116.386719 221.566406 116.273438 220.398438 C 116.160156 219.234375 116.070312 218.066406 116.015625 216.894531 C 115.957031 215.722656 115.929688 214.550781 115.929688 213.378906 C 115.929688 212.207031 115.957031 211.035156 116.015625 209.867188 C 116.070312 208.695312 116.160156 207.527344 116.273438 206.359375 C 116.386719 205.191406 116.53125 204.03125 116.703125 202.871094 C 116.875 201.710938 117.074219 200.554688 117.304688 199.40625 C 117.535156 198.257812 117.789062 197.113281 118.074219 195.976562 C 118.359375 194.839844 118.671875 193.710938 119.011719 192.589844 C 119.351562 191.464844 119.71875 190.355469 120.117188 189.25 C 120.511719 188.144531 120.933594 187.054688 121.378906 185.96875 C 121.828125 184.886719 122.304688 183.816406 122.804688 182.757812 C 123.304688 181.695312 123.832031 180.648438 124.386719 179.617188 C 124.9375 178.582031 125.515625 177.5625 126.117188 176.558594 C 126.722656 175.550781 127.347656 174.5625 128 173.585938 C 128.652344 172.613281 129.324219 171.65625 130.023438 170.714844 C 130.722656 169.769531 131.441406 168.847656 132.1875 167.941406 C 132.929688 167.035156 133.695312 166.148438 134.484375 165.28125 C 135.269531 164.410156 136.078125 163.5625 136.90625 162.734375 C 137.734375 161.90625 138.585938 161.097656 139.453125 160.308594 C 140.320312 159.523438 141.207031 158.757812 142.113281 158.011719 C 143.019531 157.269531 143.945312 156.546875 144.886719 155.851562 C 145.828125 155.152344 146.785156 154.476562 147.761719 153.824219 C 148.734375 153.175781 149.726562 152.546875 150.730469 151.945312 C 151.734375 151.34375 152.753906 150.765625 153.789062 150.210938 C 154.824219 149.660156 155.871094 149.132812 156.929688 148.632812 C 157.988281 148.128906 159.0625 147.65625 160.144531 147.207031 C 161.226562 146.757812 162.320312 146.335938 163.421875 145.941406 C 164.527344 145.546875 165.640625 145.179688 166.761719 144.839844 C 167.882812 144.5 169.011719 144.1875 170.148438 143.902344 C 171.285156 143.617188 172.429688 143.359375 173.578125 143.132812 C 174.730469 142.902344 175.882812 142.703125 177.042969 142.53125 C 178.203125 142.359375 179.367188 142.214844 180.53125 142.101562 C 181.699219 141.984375 182.867188 141.898438 184.039062 141.839844 C 185.210938 141.785156 186.382812 141.753906 187.554688 141.753906 C 188.726562 141.753906 189.898438 141.785156 191.066406 141.839844 C 192.238281 141.898438 193.40625 141.984375 194.574219 142.101562 C 195.742188 142.214844 196.902344 142.359375 198.0625 142.53125 C 199.222656 142.703125 200.378906 142.902344 201.527344 143.132812 C 202.675781 143.359375 203.820312 143.617188 204.957031 143.902344 C 206.09375 144.1875 207.222656 144.5 208.34375 144.839844 C 209.464844 145.179688 210.578125 145.546875 211.683594 145.941406 C 212.785156 146.335938 213.878906 146.757812 214.964844 147.207031 C 216.046875 147.65625 217.117188 148.128906 218.175781 148.632812 C 219.238281 149.132812 220.285156 149.660156 221.316406 150.210938 C 222.351562 150.765625 223.371094 151.34375 224.375 151.945312 C 225.382812 152.546875 226.371094 153.175781 227.347656 153.824219 C 228.320312 154.476562 229.277344 155.152344 230.21875 155.851562 C 231.160156 156.546875 232.085938 157.269531 232.992188 158.011719 C 233.898438 158.757812 234.785156 159.523438 235.652344 160.308594 C 236.523438 161.097656 237.371094 161.90625 238.199219 162.734375 C 239.027344 163.5625 239.835938 164.410156 240.625 165.28125 C 241.410156 166.148438 242.175781 167.035156 242.921875 167.941406 C 243.664062 168.847656 244.386719 169.769531 245.082031 170.714844 C 245.78125 171.65625 246.457031 172.613281 247.105469 173.585938 C 247.757812 174.5625 248.386719 175.550781 248.988281 176.558594 C 249.589844 177.5625 250.167969 178.582031 250.722656 179.617188 C 251.273438 180.648438 251.800781 181.695312 252.300781 182.757812 C 252.804688 183.816406 253.277344 184.886719 253.726562 185.96875 C 254.175781 187.054688 254.597656 188.144531 254.992188 189.25 C 255.386719 190.355469 255.753906 191.464844 256.09375 192.589844 C 256.433594 193.710938 256.746094 194.839844 257.03125 195.976562 C 257.316406 197.113281 257.574219 198.257812 257.800781 199.40625 C 258.03125 200.554688 258.230469 201.710938 258.402344 202.871094 C 258.574219 204.03125 258.71875 205.191406 258.832031 206.359375 C 258.949219 207.527344 259.035156 208.695312 259.09375 209.867188 C 259.148438 211.035156 259.179688 212.207031 259.179688 213.378906 Z M 259.179688 213.378906 " fill-opacity="1" fill-rule="nonzero"/></g><g clip-path="url(#92dee1791a)"><path fill="#4c4b96" d="M 187.378906 28.566406 L 193.847656 41.847656 L 208.324219 43.976562 L 197.847656 54.324219 L 200.328125 68.917969 L 187.378906 62.027344 L 174.417969 68.917969 L 176.890625 54.324219 L 166.421875 43.976562 L 180.898438 41.847656 Z M 187.378906 28.566406 " fill-opacity="1" fill-rule="nonzero"/><path fill="#4c4b96" d="M 187.277344 28.441406 L 193.753906 41.722656 L 208.230469 43.851562 L 197.753906 54.195312 L 200.226562 68.792969 L 187.277344 61.902344 L 174.328125 68.792969 L 176.800781 54.195312 L 166.324219 43.851562 L 180.796875 41.722656 Z M 187.277344 28.441406 " fill-opacity="1" fill-rule="nonzero"/><path fill="#4c4b96" d="M 187.277344 28.441406 L 193.753906 41.722656 L 208.230469 43.851562 L 197.753906 54.195312 L 200.226562 68.792969 L 187.277344 61.902344 L 174.328125 68.792969 L 176.800781 54.195312 L 166.324219 43.851562 L 180.796875 41.722656 Z M 187.277344 28.441406 " fill-opacity="1" fill-rule="nonzero"/><path fill="#4c4b96" d="M 187.277344 28.441406 L 193.753906 41.722656 L 208.230469 43.851562 L 197.753906 54.195312 L 200.226562 68.792969 L 187.277344 61.902344 L 174.328125 68.792969 L 176.800781 54.195312 L 166.324219 43.851562 L 180.796875 41.722656 Z M 187.277344 28.441406 " fill-opacity="1" fill-rule="nonzero"/></g><g clip-path="url(#4a1ac51423)"><g clip-path="url(#c3e00edeb4)"><g clip-path="url(#092bec2771)"><path fill="#4c4b96" d="M 236.636719 39.34375 L 239.917969 50.378906 L 250.851562 53.917969 L 241.390625 60.46875 L 241.410156 71.988281 L 232.277344 65 L 221.34375 68.578125 L 225.160156 57.714844 L 218.398438 48.402344 L 229.886719 48.675781 Z M 236.636719 39.34375 " fill-opacity="1" fill-rule="nonzero"/><path fill="#4c4b96" d="M 236.574219 39.234375 L 239.863281 50.269531 L 250.796875 53.808594 L 241.335938 60.359375 L 241.347656 71.878906 L 232.214844 64.890625 L 221.289062 68.46875 L 225.105469 57.605469 L 218.335938 48.292969 L 229.824219 48.566406 Z M 236.574219 39.234375 " fill-opacity="1" fill-rule="nonzero"/><path fill="#4c4b96" d="M 236.574219 39.234375 L 239.863281 50.269531 L 250.796875 53.808594 L 241.335938 60.359375 L 241.347656 71.878906 L 232.214844 64.890625 L 221.289062 68.46875 L 225.105469 57.605469 L 218.335938 48.292969 L 229.824219 48.566406 Z M 236.574219 39.234375 " fill-opacity="1" fill-rule="nonzero"/><path fill="#4c4b96" d="M 236.574219 39.234375 L 239.863281 50.269531 L 250.796875 53.808594 L 241.335938 60.359375 L 241.347656 71.878906 L 232.214844 64.890625 L 221.289062 68.46875 L 225.105469 57.605469 L 218.335938 48.292969 L 229.824219 48.566406 Z M 236.574219 39.234375 " fill-opacity="1" fill-rule="nonzero"/></g></g></g><g clip-path="url(#e883d1033f)"><g clip-path="url(#a57c162f67)"><g clip-path="url(#8fa72db367)"><path fill="#4c4b96" d="M 138.652344 39.308594 L 145.464844 48.589844 L 156.953125 48.230469 L 150.253906 57.59375 L 154.160156 68.429688 L 143.207031 64.933594 L 134.121094 71.992188 L 134.046875 60.472656 L 124.539062 53.992188 L 135.445312 50.371094 Z M 138.652344 39.308594 " fill-opacity="1" fill-rule="nonzero"/><path fill="#4c4b96" d="M 138.554688 39.226562 L 145.375 48.503906 L 156.863281 48.144531 L 150.167969 57.507812 L 154.066406 68.34375 L 143.109375 64.847656 L 134.03125 71.90625 L 133.957031 60.390625 L 124.445312 53.910156 L 135.351562 50.289062 Z M 138.554688 39.226562 " fill-opacity="1" fill-rule="nonzero"/><path fill="#4c4b96" d="M 138.554688 39.226562 L 145.375 48.503906 L 156.863281 48.144531 L 150.167969 57.507812 L 154.066406 68.34375 L 143.109375 64.847656 L 134.03125 71.90625 L 133.957031 60.390625 L 124.445312 53.910156 L 135.351562 50.289062 Z M 138.554688 39.226562 " fill-opacity="1" fill-rule="nonzero"/><path fill="#4c4b96" d="M 138.554688 39.226562 L 145.375 48.503906 L 156.863281 48.144531 L 150.167969 57.507812 L 154.066406 68.34375 L 143.109375 64.847656 L 134.03125 71.90625 L 133.957031 60.390625 L 124.445312 53.910156 L 135.351562 50.289062 Z M 138.554688 39.226562 " fill-opacity="1" fill-rule="nonzero"/></g></g></g><g clip-path="url(#5569b2174e)"><g clip-path="url(#7c3e927ec5)"><g clip-path="url(#82d77a2a7f)"><path fill="#4c4b96" d="M 276.46875 55.644531 L 276.886719 64.109375 L 284.015625 68.472656 L 276.183594 71.59375 L 274.207031 79.863281 L 268.945312 73.324219 L 260.582031 74.066406 L 265.164062 66.90625 L 261.984375 59.101562 L 270.074219 61.210938 Z M 276.46875 55.644531 " fill-opacity="1" fill-rule="nonzero"/></g></g></g><g clip-path="url(#d68a1cfd2b)"><g clip-path="url(#f689584e83)"><g clip-path="url(#eb0e9657c6)"><path fill="#4c4b96" d="M 276.445312 55.554688 L 276.867188 64.019531 L 283.996094 68.386719 L 276.164062 71.507812 L 274.183594 79.773438 L 268.921875 73.234375 L 260.5625 73.976562 L 265.144531 66.820312 L 261.960938 59.011719 L 270.050781 61.121094 Z M 276.445312 55.554688 " fill-opacity="1" fill-rule="nonzero"/><path fill="#4c4b96" d="M 276.445312 55.554688 L 276.867188 64.019531 L 283.996094 68.386719 L 276.164062 71.507812 L 274.183594 79.773438 L 268.921875 73.234375 L 260.5625 73.976562 L 265.144531 66.820312 L 261.960938 59.011719 L 270.050781 61.121094 Z M 276.445312 55.554688 " fill-opacity="1" fill-rule="nonzero"/><path fill="#4c4b96" d="M 276.445312 55.554688 L 276.867188 64.019531 L 283.996094 68.386719 L 276.164062 71.507812 L 274.183594 79.773438 L 268.921875 73.234375 L 260.5625 73.976562 L 265.144531 66.820312 L 261.960938 59.011719 L 270.050781 61.121094 Z M 276.445312 55.554688 " fill-opacity="1" fill-rule="nonzero"/></g></g></g><g clip-path="url(#eea9163b8f)"><g clip-path="url(#c825a46678)"><g clip-path="url(#f768f0da09)"><path fill="#4c4b96" d="M 98.558594 55.617188 L 104.960938 61.171875 L 113.042969 59.042969 L 109.878906 66.859375 L 114.480469 74.003906 L 106.121094 73.28125 L 100.871094 79.832031 L 98.871094 71.570312 L 91.035156 68.464844 L 98.15625 64.085938 Z M 98.558594 55.617188 " fill-opacity="1" fill-rule="nonzero"/></g></g></g><g clip-path="url(#13d6c51203)"><g clip-path="url(#90b20c882d)"><g clip-path="url(#4f2de13468)"><path fill="#4c4b96" d="M 98.476562 55.574219 L 104.882812 61.128906 L 112.96875 58.996094 L 109.800781 66.8125 L 114.398438 73.960938 L 106.039062 73.238281 L 100.792969 79.785156 L 98.792969 71.527344 L 90.953125 68.421875 L 98.074219 64.042969 Z M 98.476562 55.574219 " fill-opacity="1" fill-rule="nonzero"/><path fill="#4c4b96" d="M 98.476562 55.574219 L 104.882812 61.128906 L 112.96875 58.996094 L 109.800781 66.8125 L 114.398438 73.960938 L 106.039062 73.238281 L 100.792969 79.785156 L 98.792969 71.527344 L 90.953125 68.421875 L 98.074219 64.042969 Z M 98.476562 55.574219 " fill-opacity="1" fill-rule="nonzero"/><path fill="#4c4b96" d="M 98.476562 55.574219 L 104.882812 61.128906 L 112.96875 58.996094 L 109.800781 66.8125 L 114.398438 73.960938 L 106.039062 73.238281 L 100.792969 79.785156 L 98.792969 71.527344 L 90.953125 68.421875 L 98.074219 64.042969 Z M 98.476562 55.574219 " fill-opacity="1" fill-rule="nonzero"/></g></g></g><g clip-path="url(#3b09725e84)"><path fill="#1a3142" d="M 283.070312 214.363281 L 288.09375 225.78125 C 288.285156 226.21875 288.589844 226.597656 288.976562 226.878906 C 289.359375 227.164062 289.808594 227.335938 290.28125 227.386719 L 302.574219 228.6875 L 293.386719 237.046875 C 293.03125 237.367188 292.769531 237.777344 292.621094 238.230469 C 292.476562 238.6875 292.449219 239.175781 292.550781 239.644531 L 295.125 251.867188 L 284.421875 245.613281 C 284.011719 245.375 283.546875 245.246094 283.070312 245.246094 C 282.597656 245.246094 282.128906 245.375 281.71875 245.613281 L 271.019531 251.867188 L 273.59375 239.644531 C 273.691406 239.175781 273.667969 238.6875 273.519531 238.230469 C 273.375 237.777344 273.109375 237.367188 272.757812 237.046875 L 263.570312 228.6875 L 275.863281 227.386719 C 276.332031 227.335938 276.785156 227.164062 277.167969 226.878906 C 277.550781 226.597656 277.855469 226.21875 278.050781 225.78125 Z M 283.070312 214.363281 " fill-opacity="1" fill-rule="evenodd"/></g><g clip-path="url(#94dbfa0ba2)"><path fill="#1a3142" d="M 92.207031 214.90625 L 97.226562 226.09375 C 97.421875 226.523438 97.726562 226.894531 98.109375 227.171875 C 98.492188 227.449219 98.941406 227.617188 99.414062 227.667969 L 111.703125 228.941406 L 102.519531 237.132812 C 102.164062 237.449219 101.902344 237.847656 101.753906 238.296875 C 101.609375 238.742188 101.582031 239.222656 101.683594 239.679688 L 104.253906 251.65625 L 93.558594 245.53125 C 93.148438 245.296875 92.683594 245.171875 92.207031 245.171875 C 91.734375 245.171875 91.265625 245.296875 90.855469 245.53125 L 80.160156 251.65625 L 82.734375 239.679688 C 82.832031 239.222656 82.808594 238.742188 82.660156 238.296875 C 82.515625 237.847656 82.25 237.449219 81.898438 237.132812 L 72.714844 228.941406 L 85 227.667969 C 85.472656 227.617188 85.921875 227.449219 86.308594 227.171875 C 86.691406 226.894531 86.996094 226.523438 87.1875 226.09375 Z M 92.207031 214.90625 " fill-opacity="1" fill-rule="evenodd"/></g><g fill="#ffffff" fill-opacity="1"><g transform="translate(82.058265, 133.541438)"><g><path d="M 1.1875 -20.109375 C 2.601562 -20.765625 4.035156 -21.148438 5.484375 -21.265625 L 6.4375 -17 L 6.21875 -16.65625 C 5.675781 -16.6875 5.097656 -16.644531 4.484375 -16.53125 C 3.867188 -16.414062 3.320312 -16.242188 2.84375 -16.015625 C 1.84375 -15.566406 1.253906 -14.953125 1.078125 -14.171875 C 0.910156 -13.390625 1.144531 -12.316406 1.78125 -10.953125 C 2.5 -9.367188 3.28125 -8.328125 4.125 -7.828125 C 4.96875 -7.328125 5.925781 -7.328125 7 -7.828125 C 7.457031 -8.035156 7.945312 -8.316406 8.46875 -8.671875 C 9 -9.023438 9.4375 -9.378906 9.78125 -9.734375 L 10.28125 -9.671875 L 11.671875 -5.625 C 10.835938 -4.863281 9.773438 -4.179688 8.484375 -3.578125 C 5.847656 -2.367188 3.546875 -2.140625 1.578125 -2.890625 C -0.378906 -3.648438 -1.96875 -5.351562 -3.1875 -8 C -4.40625 -10.632812 -4.628906 -13.007812 -3.859375 -15.125 C -3.097656 -17.25 -1.414062 -18.910156 1.1875 -20.109375 Z M 1.1875 -20.109375 "/></g></g></g><g fill="#ffffff" fill-opacity="1"><g transform="translate(96.745267, 126.886761)"><g><path d="M 9.9375 -8.15625 L 11.078125 -4.265625 L 1.390625 -0.53125 L -0.203125 -5.40625 L -4.875 -16.84375 L 0.265625 -18.828125 L 4.21875 -7.703125 L 4.703125 -6.546875 L 9.515625 -8.390625 Z M 9.9375 -8.15625 "/></g></g></g><g fill="#ffffff" fill-opacity="1"><g transform="translate(110.181481, 121.702691)"><g><path d="M 13 -12.9375 L 13.78125 -10.265625 C 14.34375 -8.367188 14.144531 -6.722656 13.1875 -5.328125 C 12.238281 -3.929688 10.59375 -2.875 8.25 -2.15625 C 6 -1.476562 4.117188 -1.460938 2.609375 -2.109375 C 1.109375 -2.765625 0.0976562 -4.050781 -0.421875 -5.96875 L -1.15625 -8.640625 L -3.890625 -17.078125 L 1.3125 -18.65625 L 4.234375 -8.140625 C 4.492188 -7.265625 4.859375 -6.675781 5.328125 -6.375 C 5.796875 -6.082031 6.429688 -6.0625 7.234375 -6.3125 C 8.035156 -6.550781 8.554688 -6.925781 8.796875 -7.4375 C 9.046875 -7.945312 9.023438 -8.640625 8.734375 -9.515625 L 5.328125 -19.875 L 10.609375 -21.46875 Z M 13 -12.9375 "/></g></g></g><g fill="#ffffff" fill-opacity="1"><g transform="translate(129.117906, 116.063912)"><g><path d="M 10.875 -11.53125 C 12.050781 -11.457031 12.957031 -11.164062 13.59375 -10.65625 C 14.238281 -10.144531 14.671875 -9.382812 14.890625 -8.375 C 15.273438 -6.601562 14.828125 -5.148438 13.546875 -4.015625 C 12.273438 -2.878906 10.191406 -2 7.296875 -1.375 C 5.703125 -1.03125 3.800781 -0.6875 1.59375 -0.34375 L 0.765625 -5.40625 L -2.09375 -17.421875 L 5.515625 -19.09375 C 7.453125 -19.507812 9.046875 -19.457031 10.296875 -18.9375 C 11.546875 -18.425781 12.320312 -17.457031 12.625 -16.03125 C 12.820312 -15.144531 12.769531 -14.316406 12.46875 -13.546875 C 12.164062 -12.773438 11.632812 -12.101562 10.875 -11.53125 Z M 7.421875 -14.109375 C 7.285156 -14.722656 6.972656 -15.101562 6.484375 -15.25 C 6.003906 -15.394531 5.175781 -15.34375 4 -15.09375 L 3.765625 -15.046875 L 4.421875 -11.53125 L 6.421875 -11.875 C 6.867188 -12.144531 7.175781 -12.453125 7.34375 -12.796875 C 7.507812 -13.148438 7.535156 -13.585938 7.421875 -14.109375 Z M 7.546875 -5.078125 C 8.265625 -5.234375 8.796875 -5.515625 9.140625 -5.921875 C 9.484375 -6.328125 9.59375 -6.828125 9.46875 -7.421875 C 9.382812 -7.835938 9.191406 -8.140625 8.890625 -8.328125 C 8.597656 -8.515625 8.175781 -8.640625 7.625 -8.703125 L 5.0625 -8.109375 L 5.296875 -6.953125 L 5.828125 -4.828125 C 6.722656 -4.941406 7.296875 -5.023438 7.546875 -5.078125 Z M 7.546875 -5.078125 "/></g></g></g><g fill="#ffffff" fill-opacity="1"><g transform="translate(147.871186, 112.156849)"><g><path d="M 5.71875 -18.75 C 7.414062 -18.976562 9.140625 -18.894531 10.890625 -18.5 L 10.640625 -14.046875 L 9.921875 -13.609375 C 9.117188 -13.960938 8.332031 -14.222656 7.5625 -14.390625 C 6.789062 -14.566406 6.179688 -14.625 5.734375 -14.5625 C 5.328125 -14.507812 5.007812 -14.382812 4.78125 -14.1875 C 4.5625 -13.988281 4.472656 -13.753906 4.515625 -13.484375 C 4.554688 -13.148438 4.773438 -12.882812 5.171875 -12.6875 C 5.578125 -12.5 6.238281 -12.265625 7.15625 -11.984375 C 8.21875 -11.679688 9.09375 -11.382812 9.78125 -11.09375 C 10.476562 -10.800781 11.113281 -10.351562 11.6875 -9.75 C 12.257812 -9.144531 12.613281 -8.351562 12.75 -7.375 C 12.90625 -6.289062 12.742188 -5.257812 12.265625 -4.28125 C 11.785156 -3.3125 11.03125 -2.492188 10 -1.828125 C 8.96875 -1.160156 7.71875 -0.726562 6.25 -0.53125 C 4.4375 -0.28125 2.484375 -0.359375 0.390625 -0.765625 L 0.515625 -5.53125 L 1.015625 -5.921875 C 1.910156 -5.410156 2.851562 -5.035156 3.84375 -4.796875 C 4.832031 -4.566406 5.640625 -4.492188 6.265625 -4.578125 C 6.765625 -4.640625 7.113281 -4.769531 7.3125 -4.96875 C 7.507812 -5.164062 7.59375 -5.390625 7.5625 -5.640625 C 7.507812 -6.015625 7.269531 -6.300781 6.84375 -6.5 C 6.425781 -6.707031 5.769531 -6.945312 4.875 -7.21875 C 3.820312 -7.507812 2.957031 -7.800781 2.28125 -8.09375 C 1.601562 -8.382812 0.984375 -8.832031 0.421875 -9.4375 C -0.140625 -10.050781 -0.488281 -10.847656 -0.625 -11.828125 C -0.78125 -12.953125 -0.617188 -14.003906 -0.140625 -14.984375 C 0.335938 -15.972656 1.082031 -16.800781 2.09375 -17.46875 C 3.113281 -18.132812 4.320312 -18.5625 5.71875 -18.75 Z M 5.71875 -18.75 "/></g></g></g><g fill="#ffffff" fill-opacity="1"><g transform="translate(164.111072, 109.892752)"><g><path d="M 15.625 -9.53125 C 15.6875 -9.164062 15.738281 -8.648438 15.78125 -7.984375 C 15.84375 -6.796875 15.679688 -5.738281 15.296875 -4.8125 L 18.953125 -1.8125 L 18.96875 -1.5 C 18.195312 -0.519531 17.3125 0.316406 16.3125 1.015625 L 15.984375 1.03125 L 12.734375 -1.640625 C 11.335938 -0.722656 9.613281 -0.207031 7.5625 -0.09375 C 5.394531 0.03125 3.660156 -0.328125 2.359375 -1.171875 C 1.066406 -2.015625 0.378906 -3.226562 0.296875 -4.8125 C 0.179688 -6.726562 1.109375 -8.210938 3.078125 -9.265625 L 3.09375 -9.578125 C 1.945312 -10.742188 1.335938 -11.96875 1.265625 -13.25 C 1.179688 -14.625 1.65625 -15.75 2.6875 -16.625 C 3.726562 -17.507812 5.238281 -18.007812 7.21875 -18.125 C 8.84375 -18.207031 10.390625 -18.070312 11.859375 -17.71875 L 10.890625 -13.8125 L 10.265625 -13.78125 C 9.179688 -14.3125 8.171875 -14.550781 7.234375 -14.5 C 6.265625 -14.445312 5.804688 -14.019531 5.859375 -13.21875 C 5.867188 -12.925781 5.960938 -12.648438 6.140625 -12.390625 C 6.316406 -12.140625 6.671875 -11.804688 7.203125 -11.390625 L 12.265625 -7.25 C 12.335938 -7.675781 12.363281 -8.085938 12.34375 -8.484375 C 12.320312 -8.929688 12.273438 -9.316406 12.203125 -9.640625 L 10.828125 -9.5625 L 10.59375 -9.84375 L 10.734375 -13.234375 L 18.625 -13.6875 L 18.9375 -13.359375 L 18.796875 -10 L 15.75 -9.84375 Z M 7.875 -3.71875 C 8.570312 -3.757812 9.175781 -3.882812 9.6875 -4.09375 L 5.296875 -7.65625 C 4.890625 -7.125 4.707031 -6.539062 4.75 -5.90625 C 4.832031 -4.332031 5.875 -3.601562 7.875 -3.71875 Z M 7.875 -3.71875 "/></g></g></g><g fill="#ffffff" fill-opacity="1"><g transform="translate(185.924707, 108.856997)"><g><path d="M 14.0625 -3.953125 L 14.34375 -3.578125 L 13.9375 0.359375 L 1.625 0.046875 L 2.015625 -5.078125 L 2.0625 -17.421875 L 14.578125 -17.109375 L 14.875 -16.734375 L 14.421875 -12.796875 L 10.140625 -13.0625 L 7.359375 -13.140625 L 7.25 -10.6875 L 9.921875 -10.609375 L 12.734375 -10.625 L 13.015625 -10.234375 L 12.59375 -6.296875 L 9.453125 -6.46875 L 7.03125 -6.53125 L 6.96875 -5.5 L 7 -3.984375 L 9.59375 -3.921875 Z M 14.0625 -3.953125 "/></g></g></g><g fill="#ffffff" fill-opacity="1"><g transform="translate(202.701327, 109.327624)"><g><path d="M 11.359375 1.140625 L 4.859375 0.484375 L 1.859375 -17.359375 L 7.3125 -16.8125 L 7.515625 -13.890625 L 8.53125 -3.984375 L 8.859375 -3.953125 L 12.28125 -13.078125 L 13.109375 -16.234375 L 18.390625 -15.703125 Z M 11.359375 1.140625 "/></g></g></g><g fill="#ffffff" fill-opacity="1"><g transform="translate(221.372772, 111.332036)"><g><path d="M 14.484375 -1.8125 L 14.71875 -1.375 L 13.71875 2.4375 L 1.59375 0.28125 L 2.75 -4.71875 L 4.65625 -16.921875 L 16.984375 -14.734375 L 17.203125 -14.296875 L 16.171875 -10.484375 L 11.96875 -11.390625 L 9.234375 -11.875 L 8.765625 -9.46875 L 11.390625 -9 L 14.171875 -8.59375 L 14.390625 -8.171875 L 13.390625 -4.328125 L 10.3125 -4.96875 L 7.921875 -5.390625 L 7.703125 -4.390625 L 7.515625 -2.890625 L 10.078125 -2.4375 Z M 14.484375 -1.8125 "/></g></g></g><g fill="#ffffff" fill-opacity="1"><g transform="translate(237.865264, 114.256731)"><g><path d="M 18.140625 -1.140625 L 16.890625 4.421875 L 11.203125 2.9375 L 8.828125 -7.34375 L 8.515625 -7.421875 L 7.703125 -4.515625 L 6.3125 1.65625 L 1.578125 0.40625 L 3.125 -4.46875 L 6 -16.484375 L 11.671875 -14.984375 L 14.078125 -4.703125 L 14.390625 -4.625 L 16.546875 -13.53125 L 21.421875 -12.546875 Z M 18.140625 -1.140625 "/></g></g></g><g fill="#ffffff" fill-opacity="1"><g transform="translate(258.434872, 119.840739)"><g><path d="M 18.703125 -11.578125 L 17.125 -7.953125 L 13.8125 -9.28125 L 13.515625 -9.375 L 10.875 -2.21875 L 9.203125 3.203125 L 4.09375 1.4375 L 6.046875 -3.328125 L 8.625 -11.078125 L 8.28125 -11.203125 L 4.84375 -12.234375 L 4.65625 -12.703125 L 6.234375 -16.328125 L 18.546875 -12.03125 Z M 18.703125 -11.578125 "/></g></g></g><g fill="#ffffff" fill-opacity="1"><g transform="translate(273.735077, 125.252756)"><g><path d="M 14.578125 -13.109375 C 16.148438 -12.441406 17.578125 -11.488281 18.859375 -10.25 L 16.359375 -6.546875 L 15.53125 -6.53125 C 15.007812 -7.269531 14.460938 -7.90625 13.890625 -8.4375 C 13.328125 -8.976562 12.835938 -9.335938 12.421875 -9.515625 C 12.046875 -9.671875 11.710938 -9.722656 11.421875 -9.671875 C 11.128906 -9.628906 10.925781 -9.484375 10.8125 -9.234375 C 10.675781 -8.921875 10.734375 -8.578125 10.984375 -8.203125 C 11.234375 -7.835938 11.675781 -7.300781 12.3125 -6.59375 C 13.0625 -5.78125 13.65625 -5.066406 14.09375 -4.453125 C 14.539062 -3.847656 14.851562 -3.140625 15.03125 -2.328125 C 15.21875 -1.515625 15.113281 -0.648438 14.71875 0.265625 C 14.289062 1.265625 13.625 2.054688 12.71875 2.640625 C 11.8125 3.222656 10.742188 3.535156 9.515625 3.578125 C 8.285156 3.617188 6.992188 3.347656 5.640625 2.765625 C 3.953125 2.046875 2.3125 0.972656 0.71875 -0.453125 L 3.28125 -4.46875 L 3.921875 -4.53125 C 4.421875 -3.632812 5.035156 -2.832031 5.765625 -2.125 C 6.503906 -1.414062 7.160156 -0.9375 7.734375 -0.6875 C 8.203125 -0.488281 8.570312 -0.421875 8.84375 -0.484375 C 9.113281 -0.554688 9.296875 -0.707031 9.390625 -0.9375 C 9.535156 -1.28125 9.476562 -1.644531 9.21875 -2.03125 C 8.96875 -2.425781 8.523438 -2.972656 7.890625 -3.671875 C 7.148438 -4.453125 6.5625 -5.144531 6.125 -5.75 C 5.695312 -6.351562 5.398438 -7.0625 5.234375 -7.875 C 5.066406 -8.6875 5.175781 -9.546875 5.5625 -10.453125 C 6.007812 -11.492188 6.691406 -12.3125 7.609375 -12.90625 C 8.523438 -13.507812 9.59375 -13.832031 10.8125 -13.875 C 12.03125 -13.925781 13.285156 -13.671875 14.578125 -13.109375 Z M 14.578125 -13.109375 "/></g></g></g><g fill="#ffffff" fill-opacity="1"><g transform="translate(288.936852, 131.963051)"><g/></g></g><g fill="#ffffff" fill-opacity="1"><g transform="translate(114.894647, 143.762017)"><g><path d="M 2.234375 -3.65625 L 3.0625 -0.78125 L 1.125 -0.28125 L 0.53125 -3.046875 L -1.203125 -9.46875 L 0.765625 -9.96875 Z M 2.234375 -3.65625 "/></g></g></g><g fill="#ffffff" fill-opacity="1"><g transform="translate(121.74303, 142.022992)"><g><path d="M 8.15625 -4.78125 L 8.859375 -1.921875 L 6.75 -1.46875 L 1.609375 -6.921875 L 1.5 -6.90625 L 2.15625 -3.796875 L 2.90625 -0.625 L 1.125 -0.25 L 0.625 -3 L -0.875 -9.515625 L 1.21875 -9.96875 L 6.375 -4.515625 L 6.5 -4.546875 L 5.109375 -10.71875 L 6.890625 -11.21875 Z M 8.15625 -4.78125 "/></g></g></g><g fill="#ffffff" fill-opacity="1"><g transform="translate(134.436947, 139.381757)"><g/></g></g><g fill="#ffffff" fill-opacity="1"><g transform="translate(139.371432, 138.497795)"><g/></g></g><g fill="#ffffff" fill-opacity="1"><g transform="translate(144.282466, 137.683514)"><g><path d="M 6.8125 -2.625 L 6.96875 -2.46875 L 7.046875 -0.984375 L 1.140625 -0.15625 L 0.84375 -2.96875 L -0.171875 -9.546875 L 5.78125 -10.375 L 5.9375 -10.234375 L 5.984375 -8.75 L 3.71875 -8.5 L 2.03125 -8.25 L 2.3125 -5.984375 L 3.9375 -6.1875 L 5.453125 -6.453125 L 5.59375 -6.3125 L 5.671875 -4.828125 L 3.984375 -4.640625 L 2.5 -4.40625 L 2.625 -3.390625 L 2.859375 -1.984375 L 4.515625 -2.203125 Z M 6.8125 -2.625 "/></g></g></g><g fill="#ffffff" fill-opacity="1"><g transform="translate(154.383167, 136.305)"><g><path d="M 8.65625 -3.796875 L 9.015625 -0.890625 L 6.875 -0.671875 L 2.390625 -6.6875 L 2.28125 -6.671875 L 2.578125 -3.53125 L 2.953125 -0.296875 L 1.15625 -0.109375 L 0.96875 -2.90625 L 0.234375 -9.546875 L 2.359375 -9.765625 L 6.84375 -3.75 L 6.984375 -3.765625 L 6.3125 -10.078125 L 8.125 -10.359375 Z M 8.65625 -3.796875 "/></g></g></g><g fill="#ffffff" fill-opacity="1"><g transform="translate(167.282014, 135.135699)"><g><path d="M 2.875 -3.1875 L 3.15625 -0.203125 L 1.15625 -0.078125 L 1.078125 -2.90625 L 0.5625 -9.546875 L 2.59375 -9.671875 Z M 2.875 -3.1875 "/></g></g></g><g fill="#ffffff" fill-opacity="1"><g transform="translate(174.351497, 134.70481)"><g><path d="M 4.640625 -9.765625 C 5.554688 -9.796875 6.390625 -9.632812 7.140625 -9.28125 L 6.84375 -7.59375 L 6.6875 -7.53125 C 6.382812 -7.726562 6.050781 -7.875 5.6875 -7.96875 C 5.332031 -8.070312 4.96875 -8.117188 4.59375 -8.109375 C 3.03125 -8.054688 2.285156 -7.003906 2.359375 -4.953125 C 2.390625 -3.847656 2.617188 -3.023438 3.046875 -2.484375 C 3.484375 -1.941406 4.09375 -1.679688 4.875 -1.703125 C 5.238281 -1.722656 5.609375 -1.796875 5.984375 -1.921875 C 6.367188 -2.046875 6.71875 -2.210938 7.03125 -2.421875 L 7.21875 -2.3125 L 7.09375 -0.625 C 6.363281 -0.257812 5.585938 -0.0625 4.765625 -0.03125 C 3.347656 0.0078125 2.253906 -0.363281 1.484375 -1.15625 C 0.710938 -1.957031 0.300781 -3.128906 0.25 -4.671875 C 0.195312 -6.242188 0.550781 -7.472656 1.3125 -8.359375 C 2.082031 -9.253906 3.191406 -9.722656 4.640625 -9.765625 Z M 4.640625 -9.765625 "/></g></g></g><g fill="#ffffff" fill-opacity="1"><g transform="translate(184.667374, 134.404697)"><g><path d="M 8.609375 0.046875 L 6.578125 0.03125 L 6.328125 -1.203125 L 6.09375 -2.09375 L 4.25 -2.15625 L 2.609375 -2.109375 L 2.34375 -1.328125 L 2.09375 0.015625 L 0.125 0 L 3.375 -9.46875 L 5.75 -9.453125 Z M 5.671875 -3.640625 L 4.5625 -7.609375 L 4.4375 -7.609375 L 3.125 -3.65625 L 4.390625 -3.625 Z M 5.671875 -3.640625 "/></g></g></g><g fill="#ffffff" fill-opacity="1"><g transform="translate(196.20139, 134.518129)"><g><path d="M 6.296875 -3.484375 C 7.015625 -2.234375 7.71875 -1.101562 8.40625 -0.09375 L 8.390625 0.125 C 7.742188 0.320312 7.085938 0.421875 6.421875 0.421875 L 6.21875 0.265625 C 5.5625 -0.984375 5.035156 -2.070312 4.640625 -3 L 3.203125 -3.0625 L 3.203125 -2.859375 L 3.15625 0.140625 L 1.15625 0.046875 L 1.375 -2.765625 L 1.578125 -9.421875 L 5.203125 -9.265625 C 6.203125 -9.222656 6.957031 -8.945312 7.46875 -8.4375 C 7.976562 -7.925781 8.210938 -7.222656 8.171875 -6.328125 C 8.148438 -5.722656 7.972656 -5.175781 7.640625 -4.6875 C 7.316406 -4.195312 6.867188 -3.796875 6.296875 -3.484375 Z M 3.3125 -4.609375 L 4.75 -4.484375 C 5.613281 -4.722656 6.066406 -5.304688 6.109375 -6.234375 C 6.128906 -6.734375 6.007812 -7.113281 5.75 -7.375 C 5.488281 -7.632812 5.078125 -7.785156 4.515625 -7.828125 L 3.515625 -7.8125 Z M 3.3125 -4.609375 "/></g></g></g><g fill="#ffffff" fill-opacity="1"><g transform="translate(207.583595, 135.092391)"><g><path d="M 7.9375 -8.703125 L 7.703125 -7.234375 L 5.9375 -7.453125 L 5.359375 -7.5 L 4.875 -2.609375 L 4.71875 0.390625 L 2.703125 0.21875 L 3.046875 -2.578125 L 3.390625 -7.671875 L 2.828125 -7.71875 L 1 -7.78125 L 0.875 -7.953125 L 1.140625 -9.421875 L 7.84375 -8.875 Z M 7.9375 -8.703125 "/></g></g></g><g fill="#ffffff" fill-opacity="1"><g transform="translate(217.653789, 135.948228)"><g><path d="M 9.359375 -1.875 L 9.0625 1.109375 L 7.078125 0.875 L 7.515625 -1.9375 L 7.640625 -3.03125 L 5.515625 -3.296875 L 3.59375 -3.5 L 3.46875 -2.609375 L 3.171875 0.390625 L 1.1875 0.140625 L 1.640625 -2.65625 L 2.34375 -9.265625 L 4.359375 -9.015625 L 3.8125 -5.125 L 5.84375 -4.859375 L 7.8125 -4.640625 L 8.234375 -8.53125 L 10.265625 -8.28125 Z M 9.359375 -1.875 "/></g></g></g><g fill="#ffffff" fill-opacity="1"><g transform="translate(230.485129, 137.599088)"><g><path d="M 8.5 1.40625 L 6.484375 1.078125 L 6.453125 -0.1875 L 6.34375 -1.09375 L 4.53125 -1.453125 L 2.90625 -1.671875 L 2.53125 -0.9375 L 2.0625 0.34375 L 0.125 0.015625 L 4.84375 -8.8125 L 7.1875 -8.421875 Z M 6.1875 -2.703125 L 5.71875 -6.765625 L 5.59375 -6.796875 L 3.671875 -3.109375 L 4.90625 -2.875 Z M 6.1875 -2.703125 "/></g></g></g><g fill="#ffffff" fill-opacity="1"><g transform="translate(241.853579, 139.544964)"><g><path d="M 7.203125 -8.3125 C 8.210938 -8.101562 9.082031 -7.726562 9.8125 -7.1875 L 9.03125 -5.5 L 8.84375 -5.515625 C 8.425781 -5.890625 8.039062 -6.171875 7.6875 -6.359375 C 7.34375 -6.554688 6.960938 -6.695312 6.546875 -6.78125 C 5.691406 -6.96875 5.015625 -6.84375 4.515625 -6.40625 C 4.015625 -5.976562 3.640625 -5.1875 3.390625 -4.03125 C 3.234375 -3.257812 3.191406 -2.628906 3.265625 -2.140625 C 3.335938 -1.660156 3.53125 -1.273438 3.84375 -0.984375 C 4.15625 -0.703125 4.609375 -0.503906 5.203125 -0.390625 C 5.398438 -0.347656 5.585938 -0.320312 5.765625 -0.3125 C 5.953125 -0.3125 6.191406 -0.320312 6.484375 -0.34375 L 6.671875 -1.125 L 6.953125 -2.609375 L 8.765625 -2.359375 L 8.453125 -1.0625 L 8.03125 1.21875 C 6.789062 1.34375 5.6875 1.304688 4.71875 1.109375 C 3.269531 0.804688 2.265625 0.1875 1.703125 -0.75 C 1.140625 -1.6875 1.007812 -2.890625 1.3125 -4.359375 C 1.644531 -5.972656 2.320312 -7.113281 3.34375 -7.78125 C 4.363281 -8.457031 5.648438 -8.632812 7.203125 -8.3125 Z M 7.203125 -8.3125 "/></g></g></g><g fill="#ffffff" fill-opacity="1"><g transform="translate(253.112677, 141.949872)"><g><path d="M 7.296875 0.09375 L 7.375 0.296875 L 6.90625 1.703125 L 1.125 0.28125 L 1.890625 -2.453125 L 3.40625 -8.921875 L 9.234375 -7.484375 L 9.296875 -7.3125 L 8.8125 -5.890625 L 6.625 -6.5 L 4.953125 -6.890625 L 4.359375 -4.6875 L 5.953125 -4.28125 L 7.453125 -3.9375 L 7.53125 -3.78125 L 7.0625 -2.375 L 5.421875 -2.796875 L 3.953125 -3.15625 L 3.6875 -2.171875 L 3.390625 -0.78125 L 5.015625 -0.359375 Z M 7.296875 0.09375 "/></g></g></g><g clip-path="url(#1a2d869d1b)"><path fill="#becfd2" d="M 186.828125 272.6875 C 185.316406 272.691406 183.808594 272.625 182.304688 272.492188 C 180.796875 272.355469 179.300781 272.15625 177.8125 271.890625 C 176.324219 271.621094 174.851562 271.289062 173.394531 270.890625 C 171.9375 270.492188 170.5 270.03125 169.085938 269.503906 C 167.667969 268.976562 166.28125 268.390625 164.917969 267.738281 C 163.554688 267.085938 162.222656 266.378906 160.925781 265.609375 C 159.625 264.839844 158.363281 264.011719 157.140625 263.132812 C 155.914062 262.25 154.734375 261.3125 153.59375 260.328125 C 152.453125 259.339844 151.359375 258.304688 150.3125 257.21875 C 149.265625 256.132812 148.269531 255.003906 147.324219 253.828125 C 146.378906 252.65625 145.488281 251.441406 144.652344 250.1875 C 143.816406 248.933594 143.039062 247.644531 142.320312 246.324219 C 141.601562 245 140.941406 243.648438 140.34375 242.265625 C 139.746094 240.882812 139.210938 239.480469 138.738281 238.050781 C 138.269531 236.621094 137.863281 235.171875 137.523438 233.707031 C 137.179688 232.242188 136.90625 230.765625 136.699219 229.273438 C 136.492188 227.785156 136.351562 226.289062 136.28125 224.785156 C 136.207031 223.28125 136.203125 221.78125 136.265625 220.277344 C 136.328125 218.773438 136.457031 217.277344 136.65625 215.785156 C 136.851562 214.292969 137.117188 212.8125 137.449219 211.347656 C 137.78125 209.878906 138.175781 208.429688 138.636719 206.996094 C 139.097656 205.5625 139.625 204.15625 140.214844 202.769531 C 140.800781 201.382812 141.453125 200.027344 142.164062 198.699219 C 142.875 197.371094 143.640625 196.078125 144.46875 194.820312 C 145.296875 193.5625 146.179688 192.339844 147.117188 191.160156 C 148.054688 189.980469 149.042969 188.84375 150.082031 187.753906 C 151.121094 186.660156 152.210938 185.617188 153.34375 184.621094 C 154.476562 183.628906 155.652344 182.683594 156.871094 181.796875 C 158.089844 180.90625 159.347656 180.070312 160.640625 179.292969 C 161.933594 178.515625 163.261719 177.796875 164.617188 177.136719 C 165.976562 176.476562 167.363281 175.878906 168.773438 175.34375 C 170.1875 174.808594 171.621094 174.335938 173.078125 173.929688 C 174.53125 173.519531 176 173.179688 177.488281 172.902344 C 178.972656 172.625 180.46875 172.414062 181.972656 172.273438 C 183.476562 172.128906 184.984375 172.050781 186.496094 172.042969 C 188.007812 172.035156 189.519531 172.09375 191.023438 172.21875 C 192.53125 172.347656 194.027344 172.539062 195.515625 172.796875 C 197.007812 173.058594 198.480469 173.382812 199.941406 173.773438 C 201.398438 174.164062 202.839844 174.621094 204.257812 175.140625 C 205.675781 175.660156 207.066406 176.242188 208.433594 176.886719 C 209.800781 177.53125 211.136719 178.234375 212.4375 178.996094 C 213.742188 179.757812 215.007812 180.578125 216.234375 181.457031 C 217.464844 182.332031 218.652344 183.261719 219.796875 184.242188 C 220.941406 185.222656 222.039062 186.253906 223.09375 187.335938 C 224.144531 188.414062 225.144531 189.539062 226.097656 190.707031 C 227.046875 191.878906 227.945312 193.085938 228.785156 194.335938 C 229.628906 195.585938 230.414062 196.871094 231.136719 198.191406 C 231.863281 199.507812 232.53125 200.859375 233.132812 202.238281 L 239.78125 199.359375 C 239.34375 198.363281 238.875 197.375 238.382812 196.402344 C 237.886719 195.429688 237.363281 194.46875 236.816406 193.527344 C 236.265625 192.582031 235.6875 191.65625 235.085938 190.746094 C 234.484375 189.832031 233.855469 188.941406 233.203125 188.066406 C 232.546875 187.191406 231.871094 186.332031 231.167969 185.496094 C 230.464844 184.660156 229.738281 183.84375 228.988281 183.046875 C 228.242188 182.25 227.46875 181.476562 226.675781 180.722656 C 225.882812 179.972656 225.066406 179.242188 224.234375 178.535156 C 223.398438 177.832031 222.542969 177.148438 221.667969 176.492188 C 220.792969 175.832031 219.902344 175.199219 218.992188 174.59375 C 218.082031 173.984375 217.152344 173.40625 216.210938 172.851562 C 215.265625 172.296875 214.308594 171.769531 213.335938 171.265625 C 212.359375 170.765625 211.375 170.292969 210.371094 169.851562 C 209.371094 169.40625 208.359375 168.988281 207.335938 168.601562 C 206.308594 168.214844 205.277344 167.855469 204.230469 167.527344 C 203.1875 167.199219 202.132812 166.898438 201.070312 166.632812 C 200.007812 166.363281 198.9375 166.125 197.863281 165.914062 C 196.789062 165.707031 195.707031 165.527344 194.621094 165.382812 C 193.535156 165.234375 192.445312 165.117188 191.351562 165.03125 C 190.261719 164.945312 189.167969 164.890625 188.070312 164.867188 C 186.976562 164.84375 185.878906 164.851562 184.785156 164.890625 C 183.6875 164.929688 182.597656 164.996094 181.503906 165.097656 C 180.414062 165.199219 179.324219 165.328125 178.242188 165.488281 C 177.15625 165.652344 176.078125 165.84375 175.007812 166.066406 C 173.933594 166.289062 172.867188 166.542969 171.808594 166.824219 C 170.75 167.109375 169.703125 167.421875 168.660156 167.765625 C 167.621094 168.105469 166.589844 168.480469 165.570312 168.878906 C 164.550781 169.28125 163.546875 169.710938 162.550781 170.167969 C 161.554688 170.625 160.574219 171.113281 159.609375 171.625 C 158.640625 172.136719 157.691406 172.679688 156.753906 173.246094 C 155.816406 173.8125 154.898438 174.40625 153.996094 175.027344 C 153.09375 175.644531 152.210938 176.289062 151.347656 176.960938 C 150.480469 177.628906 149.636719 178.320312 148.808594 179.039062 C 147.984375 179.757812 147.179688 180.496094 146.394531 181.257812 C 145.613281 182.023438 144.851562 182.804688 144.113281 183.613281 C 143.375 184.417969 142.660156 185.242188 141.96875 186.089844 C 141.277344 186.9375 140.609375 187.800781 139.96875 188.6875 C 139.328125 189.570312 138.710938 190.472656 138.121094 191.390625 C 137.53125 192.308594 136.96875 193.246094 136.429688 194.195312 C 135.894531 195.144531 135.382812 196.109375 134.902344 197.089844 C 134.421875 198.070312 133.96875 199.0625 133.542969 200.070312 C 133.117188 201.074219 132.722656 202.089844 132.355469 203.117188 C 131.988281 204.144531 131.652344 205.183594 131.34375 206.230469 C 131.035156 207.277344 130.757812 208.332031 130.511719 209.394531 C 130.265625 210.457031 130.046875 211.527344 129.863281 212.601562 C 129.675781 213.675781 129.519531 214.753906 129.394531 215.835938 C 129.273438 216.921875 129.179688 218.007812 129.117188 219.097656 C 129.054688 220.183594 129.023438 221.273438 129.023438 222.367188 C 129.023438 223.457031 129.054688 224.546875 129.117188 225.636719 C 129.179688 226.722656 129.273438 227.808594 129.394531 228.894531 C 129.519531 229.976562 129.675781 231.058594 129.863281 232.132812 C 130.046875 233.207031 130.265625 234.273438 130.511719 235.335938 C 130.757812 236.398438 131.035156 237.453125 131.34375 238.5 C 131.652344 239.546875 131.988281 240.585938 132.355469 241.613281 C 132.722656 242.640625 133.117188 243.65625 133.542969 244.664062 C 133.96875 245.667969 134.421875 246.660156 134.902344 247.640625 C 135.382812 248.621094 135.894531 249.585938 136.429688 250.535156 C 136.96875 251.488281 137.53125 252.421875 138.121094 253.339844 C 138.710938 254.261719 139.328125 255.160156 139.96875 256.046875 C 140.609375 256.929688 141.277344 257.796875 141.96875 258.640625 C 142.660156 259.488281 143.375 260.3125 144.113281 261.121094 C 144.851562 261.925781 145.613281 262.710938 146.394531 263.472656 C 147.179688 264.234375 147.984375 264.976562 148.808594 265.691406 C 149.636719 266.410156 150.480469 267.101562 151.347656 267.773438 C 152.210938 268.441406 153.09375 269.085938 153.996094 269.707031 C 154.898438 270.324219 155.816406 270.917969 156.753906 271.484375 C 157.691406 272.054688 158.640625 272.59375 159.609375 273.105469 C 160.574219 273.621094 161.554688 274.105469 162.550781 274.5625 C 163.546875 275.023438 164.554688 275.449219 165.570312 275.851562 C 166.589844 276.253906 167.621094 276.625 168.660156 276.96875 C 169.703125 277.308594 170.75 277.621094 171.808594 277.90625 C 172.867188 278.1875 173.933594 278.441406 175.007812 278.664062 C 176.078125 278.886719 177.15625 279.078125 178.242188 279.242188 C 179.324219 279.402344 180.414062 279.535156 181.503906 279.632812 C 182.597656 279.734375 183.6875 279.804688 184.785156 279.84375 C 185.878906 279.878906 186.976562 279.886719 188.070312 279.863281 C 189.167969 279.839844 190.261719 279.785156 191.351562 279.699219 C 192.445312 279.613281 193.535156 279.496094 194.621094 279.351562 C 195.707031 279.203125 196.789062 279.027344 197.863281 278.816406 C 198.9375 278.609375 200.007812 278.371094 201.070312 278.101562 C 202.132812 277.832031 203.1875 277.53125 204.230469 277.203125 C 205.277344 276.875 206.308594 276.515625 207.335938 276.128906 C 208.359375 275.742188 209.371094 275.328125 210.371094 274.882812 C 211.375 274.4375 212.359375 273.964844 213.335938 273.464844 C 214.308594 272.964844 215.265625 272.4375 216.210938 271.882812 C 217.152344 271.328125 218.082031 270.746094 218.992188 270.136719 C 219.902344 269.53125 220.792969 268.898438 221.667969 268.242188 C 222.542969 267.582031 223.398438 266.902344 224.234375 266.195312 C 225.066406 265.488281 225.882812 264.757812 226.675781 264.007812 C 227.46875 263.253906 228.242188 262.480469 228.988281 261.683594 C 229.738281 260.890625 230.464844 260.074219 231.167969 259.234375 C 231.871094 258.398438 232.546875 257.542969 233.203125 256.667969 C 233.855469 255.792969 234.484375 254.898438 235.085938 253.988281 C 235.6875 253.074219 236.265625 252.148438 236.816406 251.207031 C 237.363281 250.261719 237.886719 249.304688 238.382812 248.328125 C 238.875 247.355469 239.34375 246.371094 239.78125 245.371094 L 233.132812 242.496094 C 232.15625 244.726562 231.023438 246.875 229.730469 248.941406 C 228.441406 251.007812 227.003906 252.96875 225.429688 254.828125 C 223.851562 256.6875 222.148438 258.425781 220.316406 260.039062 C 218.484375 261.652344 216.546875 263.125 214.503906 264.457031 C 212.457031 265.792969 210.328125 266.972656 208.109375 267.996094 C 205.890625 269.023438 203.613281 269.882812 201.269531 270.582031 C 198.925781 271.277344 196.546875 271.804688 194.125 272.15625 C 191.707031 272.507812 189.273438 272.6875 186.828125 272.6875 Z M 186.828125 272.6875 " fill-opacity="1" fill-rule="nonzero"/></g><path fill="#ead2c5" d="M 186.828125 254.714844 C 185.859375 254.714844 184.890625 254.671875 183.921875 254.582031 C 182.953125 254.496094 181.992188 254.363281 181.039062 254.191406 C 180.082031 254.019531 179.136719 253.800781 178.199219 253.542969 C 177.265625 253.285156 176.339844 252.988281 175.433594 252.648438 C 174.523438 252.308594 173.628906 251.925781 172.757812 251.507812 C 171.882812 251.089844 171.027344 250.628906 170.191406 250.132812 C 169.359375 249.640625 168.550781 249.105469 167.761719 248.539062 C 166.976562 247.96875 166.21875 247.367188 165.488281 246.734375 C 164.757812 246.097656 164.054688 245.429688 163.382812 244.730469 C 162.710938 244.03125 162.074219 243.304688 161.464844 242.550781 C 160.859375 241.796875 160.289062 241.015625 159.753906 240.207031 C 159.21875 239.402344 158.71875 238.574219 158.257812 237.722656 C 157.796875 236.871094 157.375 236.003906 156.992188 235.113281 C 156.609375 234.226562 156.269531 233.324219 155.96875 232.402344 C 155.664062 231.484375 155.40625 230.554688 155.1875 229.613281 C 154.972656 228.671875 154.796875 227.71875 154.664062 226.761719 C 154.53125 225.804688 154.445312 224.84375 154.398438 223.878906 C 154.351562 222.914062 154.351562 221.945312 154.390625 220.980469 C 154.433594 220.015625 154.519531 219.054688 154.648438 218.09375 C 154.777344 217.136719 154.945312 216.1875 155.160156 215.242188 C 155.375 214.300781 155.628906 213.371094 155.925781 212.449219 C 156.226562 211.53125 156.5625 210.625 156.941406 209.734375 C 157.324219 208.84375 157.742188 207.972656 158.199219 207.121094 C 158.65625 206.269531 159.152344 205.4375 159.683594 204.628906 C 160.214844 203.820312 160.785156 203.039062 161.386719 202.28125 C 161.988281 201.523438 162.625 200.792969 163.292969 200.09375 C 163.964844 199.390625 164.664062 198.722656 165.390625 198.082031 C 166.121094 197.445312 166.875 196.839844 167.660156 196.269531 C 168.445312 195.695312 169.25 195.160156 170.082031 194.664062 C 170.914062 194.164062 171.765625 193.703125 172.640625 193.28125 C 173.515625 192.855469 174.40625 192.472656 175.3125 192.128906 C 176.21875 191.785156 177.140625 191.484375 178.078125 191.222656 C 179.011719 190.960938 179.957031 190.742188 180.910156 190.5625 C 181.867188 190.386719 182.828125 190.253906 183.792969 190.160156 C 184.761719 190.070312 185.730469 190.019531 186.703125 190.015625 C 187.671875 190.011719 188.640625 190.050781 189.609375 190.128906 C 190.578125 190.210938 191.539062 190.335938 192.496094 190.503906 C 193.453125 190.671875 194.402344 190.878906 195.339844 191.132812 C 196.277344 191.382812 197.199219 191.675781 198.113281 192.011719 C 199.023438 192.34375 199.917969 192.71875 200.796875 193.132812 C 201.671875 193.546875 202.53125 194 203.367188 194.492188 C 204.203125 194.980469 205.015625 195.507812 205.808594 196.070312 C 206.597656 196.632812 207.359375 197.230469 208.09375 197.863281 C 208.832031 198.492188 209.535156 199.15625 210.210938 199.851562 C 210.886719 200.542969 211.53125 201.265625 212.140625 202.019531 C 212.753906 202.769531 213.328125 203.546875 213.871094 204.347656 C 214.410156 205.152344 214.914062 205.976562 215.382812 206.824219 C 215.847656 207.671875 216.277344 208.539062 216.664062 209.425781 L 223.308594 206.476562 C 223.007812 205.789062 222.6875 205.109375 222.347656 204.441406 C 222.003906 203.769531 221.644531 203.109375 221.265625 202.460938 C 220.886719 201.8125 220.492188 201.171875 220.074219 200.542969 C 219.660156 199.917969 219.226562 199.300781 218.777344 198.699219 C 218.328125 198.097656 217.859375 197.507812 217.375 196.929688 C 216.890625 196.355469 216.390625 195.792969 215.875 195.242188 C 215.359375 194.695312 214.828125 194.164062 214.28125 193.644531 C 213.734375 193.125 213.175781 192.625 212.597656 192.136719 C 212.023438 191.652344 211.433594 191.183594 210.832031 190.730469 C 210.230469 190.277344 209.617188 189.839844 208.988281 189.421875 C 208.363281 189.003906 207.722656 188.605469 207.074219 188.222656 C 206.425781 187.839844 205.765625 187.476562 205.09375 187.132812 C 204.421875 186.789062 203.742188 186.464844 203.054688 186.15625 C 202.363281 185.851562 201.667969 185.566406 200.960938 185.296875 C 200.253906 185.03125 199.542969 184.785156 198.824219 184.558594 C 198.101562 184.332031 197.378906 184.125 196.644531 183.941406 C 195.914062 183.757812 195.179688 183.59375 194.4375 183.449219 C 193.695312 183.304688 192.953125 183.183594 192.203125 183.082031 C 191.457031 182.980469 190.707031 182.898438 189.953125 182.839844 C 189.203125 182.78125 188.449219 182.746094 187.695312 182.726562 C 186.9375 182.710938 186.183594 182.714844 185.429688 182.742188 C 184.675781 182.769531 183.921875 182.816406 183.171875 182.886719 C 182.417969 182.957031 181.671875 183.046875 180.925781 183.15625 C 180.179688 183.269531 179.433594 183.402344 178.695312 183.554688 C 177.957031 183.707031 177.222656 183.882812 176.496094 184.078125 C 175.765625 184.273438 175.042969 184.488281 174.328125 184.722656 C 173.609375 184.960938 172.902344 185.214844 172.199219 185.492188 C 171.496094 185.769531 170.804688 186.066406 170.117188 186.378906 C 169.433594 186.695312 168.757812 187.03125 168.09375 187.382812 C 167.425781 187.738281 166.769531 188.109375 166.125 188.5 C 165.480469 188.890625 164.847656 189.300781 164.226562 189.726562 C 163.605469 190.152344 162.996094 190.597656 162.402344 191.058594 C 161.804688 191.519531 161.222656 191.996094 160.65625 192.488281 C 160.085938 192.984375 159.53125 193.492188 158.992188 194.019531 C 158.453125 194.542969 157.929688 195.085938 157.421875 195.640625 C 156.914062 196.195312 156.421875 196.765625 155.945312 197.347656 C 155.46875 197.929688 155.007812 198.527344 154.566406 199.132812 C 154.125 199.742188 153.699219 200.363281 153.292969 200.996094 C 152.886719 201.628906 152.5 202.273438 152.128906 202.929688 C 151.761719 203.582031 151.410156 204.25 151.078125 204.921875 C 150.746094 205.597656 150.433594 206.28125 150.140625 206.972656 C 149.847656 207.667969 149.578125 208.367188 149.324219 209.074219 C 149.070312 209.78125 148.839844 210.496094 148.628906 211.21875 C 148.414062 211.9375 148.222656 212.664062 148.054688 213.394531 C 147.882812 214.128906 147.734375 214.863281 147.605469 215.605469 C 147.476562 216.34375 147.371094 217.085938 147.285156 217.835938 C 147.199219 218.582031 147.136719 219.328125 147.09375 220.078125 C 147.050781 220.828125 147.027344 221.578125 147.027344 222.328125 C 147.027344 223.082031 147.050781 223.832031 147.09375 224.582031 C 147.136719 225.332031 147.199219 226.078125 147.285156 226.824219 C 147.371094 227.570312 147.476562 228.316406 147.605469 229.054688 C 147.734375 229.796875 147.882812 230.53125 148.054688 231.261719 C 148.222656 231.996094 148.414062 232.722656 148.628906 233.441406 C 148.839844 234.164062 149.070312 234.878906 149.324219 235.585938 C 149.578125 236.292969 149.847656 236.992188 150.140625 237.6875 C 150.433594 238.378906 150.746094 239.0625 151.078125 239.738281 C 151.410156 240.410156 151.761719 241.078125 152.128906 241.730469 C 152.5 242.386719 152.886719 243.03125 153.292969 243.664062 C 153.699219 244.296875 154.125 244.917969 154.566406 245.527344 C 155.007812 246.132812 155.46875 246.730469 155.945312 247.3125 C 156.421875 247.894531 156.914062 248.464844 157.421875 249.019531 C 157.929688 249.574219 158.453125 250.117188 158.992188 250.640625 C 159.53125 251.167969 160.085938 251.675781 160.65625 252.167969 C 161.222656 252.664062 161.804688 253.140625 162.402344 253.601562 C 162.996094 254.0625 163.605469 254.507812 164.226562 254.933594 C 164.847656 255.359375 165.480469 255.769531 166.125 256.160156 C 166.769531 256.550781 167.425781 256.921875 168.09375 257.277344 C 168.757812 257.628906 169.433594 257.964844 170.117188 258.28125 C 170.804688 258.59375 171.496094 258.890625 172.199219 259.167969 C 172.902344 259.441406 173.609375 259.699219 174.328125 259.933594 C 175.042969 260.171875 175.765625 260.386719 176.496094 260.582031 C 177.222656 260.777344 177.957031 260.953125 178.695312 261.105469 C 179.433594 261.257812 180.179688 261.390625 180.925781 261.503906 C 181.671875 261.613281 182.417969 261.703125 183.171875 261.773438 C 183.921875 261.84375 184.675781 261.890625 185.429688 261.917969 C 186.183594 261.941406 186.9375 261.949219 187.695312 261.933594 C 188.449219 261.914062 189.203125 261.878906 189.953125 261.820312 C 190.707031 261.761719 191.457031 261.679688 192.203125 261.578125 C 192.953125 261.476562 193.695312 261.355469 194.4375 261.210938 C 195.179688 261.066406 195.914062 260.902344 196.644531 260.71875 C 197.378906 260.535156 198.101562 260.328125 198.824219 260.101562 C 199.542969 259.875 200.253906 259.628906 200.960938 259.363281 C 201.667969 259.09375 202.363281 258.808594 203.054688 258.503906 C 203.742188 258.195312 204.421875 257.871094 205.09375 257.527344 C 205.765625 257.183594 206.425781 256.820312 207.074219 256.4375 C 207.722656 256.054688 208.363281 255.65625 208.988281 255.238281 C 209.617188 254.820312 210.230469 254.382812 210.832031 253.929688 C 211.433594 253.476562 212.023438 253.007812 212.597656 252.523438 C 213.175781 252.035156 213.734375 251.53125 214.28125 251.015625 C 214.828125 250.496094 215.359375 249.964844 215.875 249.414062 C 216.390625 248.867188 216.890625 248.304688 217.375 247.730469 C 217.859375 247.152344 218.328125 246.5625 218.777344 245.960938 C 219.226562 245.359375 219.660156 244.742188 220.074219 244.113281 C 220.492188 243.488281 220.886719 242.847656 221.265625 242.199219 C 221.644531 241.550781 222.003906 240.890625 222.347656 240.21875 C 222.6875 239.550781 223.007812 238.871094 223.308594 238.183594 L 216.664062 235.234375 C 216.03125 236.671875 215.300781 238.054688 214.46875 239.386719 C 213.636719 240.71875 212.710938 241.984375 211.695312 243.179688 C 210.679688 244.378906 209.582031 245.5 208.402344 246.539062 C 207.222656 247.578125 205.976562 248.53125 204.65625 249.390625 C 203.339844 250.25 201.96875 251.011719 200.539062 251.675781 C 199.109375 252.335938 197.640625 252.894531 196.132812 253.34375 C 194.625 253.796875 193.089844 254.136719 191.53125 254.367188 C 189.972656 254.59375 188.40625 254.710938 186.828125 254.714844 Z M 186.828125 254.714844 " fill-opacity="1" fill-rule="nonzero"/><path fill="#becfd2" d="M 186.828125 236.742188 C 185.964844 236.742188 185.109375 236.667969 184.257812 236.511719 C 183.40625 236.359375 182.578125 236.132812 181.769531 235.828125 C 180.960938 235.527344 180.183594 235.15625 179.441406 234.714844 C 178.699219 234.277344 178.003906 233.773438 177.351562 233.207031 C 176.699219 232.644531 176.101562 232.027344 175.5625 231.355469 C 175.023438 230.683594 174.546875 229.96875 174.136719 229.214844 C 173.722656 228.457031 173.382812 227.671875 173.113281 226.855469 C 172.84375 226.039062 172.648438 225.203125 172.53125 224.351562 C 172.410156 223.5 172.367188 222.644531 172.402344 221.785156 C 172.4375 220.925781 172.550781 220.078125 172.738281 219.238281 C 172.925781 218.398438 173.1875 217.582031 173.523438 216.789062 C 173.859375 215.996094 174.261719 215.238281 174.730469 214.519531 C 175.203125 213.800781 175.734375 213.125 176.328125 212.5 C 176.921875 211.875 177.566406 211.308594 178.261719 210.796875 C 178.957031 210.285156 179.691406 209.839844 180.46875 209.460938 C 181.242188 209.082031 182.046875 208.773438 182.878906 208.539062 C 183.707031 208.304688 184.554688 208.144531 185.414062 208.058594 C 186.273438 207.972656 187.132812 207.964844 187.996094 208.035156 C 188.855469 208.101562 189.707031 208.246094 190.539062 208.46875 C 191.375 208.6875 192.183594 208.980469 192.96875 209.34375 C 193.75 209.710938 194.492188 210.140625 195.199219 210.640625 C 195.902344 211.136719 196.558594 211.691406 197.164062 212.308594 C 197.765625 212.921875 198.3125 213.585938 198.796875 214.296875 C 199.28125 215.007812 199.699219 215.757812 200.050781 216.542969 L 206.695312 213.738281 C 206.203125 212.613281 205.613281 211.535156 204.933594 210.507812 C 204.257812 209.480469 203.496094 208.515625 202.648438 207.617188 C 201.804688 206.71875 200.890625 205.902344 199.902344 205.160156 C 198.917969 204.417969 197.875 203.761719 196.777344 203.199219 C 195.679688 202.632812 194.542969 202.167969 193.363281 201.796875 C 192.183594 201.425781 190.984375 201.15625 189.757812 200.988281 C 188.535156 200.824219 187.304688 200.761719 186.070312 200.804688 C 184.835938 200.847656 183.613281 200.996094 182.402344 201.246094 C 181.191406 201.496094 180.011719 201.847656 178.863281 202.300781 C 177.714844 202.753906 176.609375 203.300781 175.554688 203.9375 C 174.5 204.578125 173.507812 205.304688 172.574219 206.113281 C 171.644531 206.921875 170.789062 207.804688 170.011719 208.757812 C 169.230469 209.710938 168.539062 210.726562 167.933594 211.796875 C 167.328125 212.871094 166.820312 213.988281 166.40625 215.144531 C 165.992188 216.304688 165.679688 217.492188 165.472656 218.703125 C 165.261719 219.914062 165.15625 221.136719 165.15625 222.367188 C 165.160156 223.59375 165.269531 224.8125 165.484375 226.023438 C 165.695312 227.234375 166.011719 228.417969 166.425781 229.574219 C 166.84375 230.730469 167.355469 231.84375 167.960938 232.914062 C 168.570312 233.980469 169.261719 234.992188 170.042969 235.945312 C 170.824219 236.894531 171.679688 237.773438 172.613281 238.578125 C 173.542969 239.386719 174.539062 240.105469 175.59375 240.746094 C 176.648438 241.382812 177.75 241.925781 178.902344 242.375 C 180.050781 242.824219 181.226562 243.171875 182.4375 243.421875 C 183.644531 243.671875 184.867188 243.816406 186.101562 243.855469 C 187.335938 243.898438 188.5625 243.835938 189.785156 243.667969 C 191.007812 243.5 192.207031 243.230469 193.386719 242.859375 C 194.5625 242.488281 195.699219 242.019531 196.792969 241.453125 C 197.890625 240.886719 198.929688 240.234375 199.914062 239.492188 C 200.898438 238.75 201.8125 237.933594 202.65625 237.035156 C 203.5 236.136719 204.257812 235.175781 204.9375 234.148438 C 205.617188 233.125 206.203125 232.046875 206.695312 230.921875 L 200.050781 228.117188 C 199.488281 229.398438 198.753906 230.570312 197.847656 231.640625 C 196.945312 232.707031 195.902344 233.625 194.730469 234.390625 C 193.554688 235.15625 192.296875 235.738281 190.953125 236.140625 C 189.605469 236.539062 188.234375 236.742188 186.828125 236.742188 Z M 186.828125 236.742188 " fill-opacity="1" fill-rule="nonzero"/><g clip-path="url(#36ba48a26a)"><path fill="#ead2c5" d="M 246.859375 211.582031 L 227.933594 211.582031 L 224.320312 218.769531 L 193.042969 218.769531 C 192.726562 218.226562 192.347656 217.734375 191.902344 217.289062 C 191.457031 216.847656 190.960938 216.464844 190.417969 216.152344 C 189.871094 215.835938 189.296875 215.59375 188.6875 215.429688 C 188.078125 215.265625 187.460938 215.179688 186.828125 215.175781 C 186.355469 215.175781 185.886719 215.222656 185.421875 215.316406 C 184.953125 215.40625 184.503906 215.542969 184.066406 215.722656 C 183.625 215.90625 183.210938 216.125 182.816406 216.386719 C 182.421875 216.652344 182.054688 216.949219 181.722656 217.28125 C 181.386719 217.617188 181.085938 217.980469 180.824219 218.371094 C 180.558594 218.765625 180.335938 219.179688 180.15625 219.613281 C 179.972656 220.050781 179.835938 220.5 179.746094 220.964844 C 179.652344 221.425781 179.605469 221.894531 179.605469 222.367188 C 179.605469 222.839844 179.652344 223.304688 179.746094 223.769531 C 179.835938 224.230469 179.972656 224.679688 180.15625 225.117188 C 180.335938 225.554688 180.558594 225.96875 180.824219 226.359375 C 181.085938 226.753906 181.386719 227.117188 181.722656 227.449219 C 182.054688 227.78125 182.421875 228.082031 182.816406 228.34375 C 183.210938 228.605469 183.625 228.828125 184.066406 229.007812 C 184.503906 229.1875 184.953125 229.324219 185.421875 229.417969 C 185.886719 229.507812 186.355469 229.554688 186.828125 229.554688 C 187.460938 229.550781 188.078125 229.464844 188.6875 229.300781 C 189.296875 229.136719 189.871094 228.894531 190.417969 228.582031 C 190.960938 228.265625 191.457031 227.886719 191.902344 227.441406 C 192.347656 226.996094 192.726562 226.503906 193.042969 225.960938 L 224.320312 225.960938 L 227.933594 233.148438 L 246.859375 233.148438 L 241.441406 222.367188 Z M 235.15625 225.960938 L 232.414062 225.960938 L 230.605469 222.367188 L 232.414062 218.769531 L 235.15625 218.769531 L 233.351562 222.367188 Z M 235.15625 225.960938 " fill-opacity="1" fill-rule="nonzero"/></g></svg>