<svg xmlns="http://www.w3.org/2000/svg" xmlns:xlink="http://www.w3.org/1999/xlink" width="940" zoomAndPan="magnify" viewBox="0 0 705 591.000005" height="788" preserveAspectRatio="xMidYMid meet" version="1.0"><defs><clipPath id="b35ea7a8f5"><path d="M 129.246094 526 L 165 526 L 165 531.097656 L 129.246094 531.097656 Z M 129.246094 526 " clip-rule="nonzero"/></clipPath><clipPath id="1c533ba190"><path d="M 501 526 L 537.304688 526 L 537.304688 531.097656 L 501 531.097656 Z M 501 526 " clip-rule="nonzero"/></clipPath><clipPath id="569a654e84"><path d="M 177 526 L 490 526 L 490 531.097656 L 177 531.097656 Z M 177 526 " clip-rule="nonzero"/></clipPath><clipPath id="b7cef7de0c"><path d="M 129.246094 123.039062 L 537.304688 123.039062 L 537.304688 513 L 129.246094 513 Z M 129.246094 123.039062 " clip-rule="nonzero"/></clipPath></defs><path fill="#4ca5e7" d="M 229.585938 346.847656 C 179.015625 348.441406 138.5 389.917969 138.5 440.964844 L 138.5 510.039062 L 367.414062 510.039062 L 367.414062 440.964844 C 367.414062 389.917969 326.894531 348.441406 276.324219 346.847656 Z M 229.585938 346.847656 " fill-opacity="1" fill-rule="nonzero"/><path fill="#4cd2e7" d="M 276.328125 346.847656 L 252.398438 346.847656 C 302.964844 348.441406 343.484375 389.917969 343.484375 440.964844 L 343.484375 510.039062 L 367.414062 510.039062 L 367.414062 440.964844 C 367.414062 389.917969 326.894531 348.441406 276.328125 346.847656 Z M 276.328125 346.847656 " fill-opacity="1" fill-rule="nonzero"/><path fill="#4c5be7" d="M 253.515625 346.847656 L 229.585938 346.847656 C 179.015625 348.441406 138.5 389.917969 138.5 440.964844 L 138.5 510.039062 L 162.425781 510.039062 L 162.425781 440.964844 C 162.425781 389.917969 202.945312 348.441406 253.515625 346.847656 Z M 253.515625 346.847656 " fill-opacity="1" fill-rule="nonzero"/><path fill="#f8ad0a" d="M 234.050781 309.039062 L 271.859375 309.039062 L 271.859375 369.980469 L 234.050781 369.980469 Z M 234.050781 309.039062 " fill-opacity="1" fill-rule="nonzero"/><path fill="#f8690a" d="M 234.050781 309.039062 L 250.003906 309.039062 L 250.003906 369.980469 L 234.050781 369.980469 Z M 234.050781 309.039062 " fill-opacity="1" fill-rule="nonzero"/><path fill="#f8690a" d="M 190.183594 226.726562 C 190.183594 227.765625 190.082031 228.792969 189.878906 229.808594 C 189.679688 230.824219 189.378906 231.8125 188.980469 232.769531 C 188.585938 233.730469 188.097656 234.640625 187.523438 235.5 C 186.945312 236.363281 186.292969 237.160156 185.558594 237.894531 C 184.824219 238.628906 184.027344 239.28125 183.164062 239.859375 C 182.304688 240.433594 181.394531 240.921875 180.433594 241.316406 C 179.476562 241.714844 178.488281 242.015625 177.472656 242.214844 C 176.453125 242.417969 175.429688 242.519531 174.390625 242.519531 C 173.355469 242.519531 172.328125 242.417969 171.308594 242.214844 C 170.292969 242.015625 169.304688 241.714844 168.347656 241.316406 C 167.390625 240.921875 166.480469 240.433594 165.617188 239.859375 C 164.753906 239.28125 163.957031 238.628906 163.222656 237.894531 C 162.492188 237.160156 161.835938 236.363281 161.261719 235.5 C 160.683594 234.640625 160.199219 233.730469 159.800781 232.769531 C 159.402344 231.8125 159.105469 230.824219 158.902344 229.808594 C 158.699219 228.792969 158.597656 227.765625 158.597656 226.726562 C 158.597656 225.691406 158.699219 224.664062 158.902344 223.644531 C 159.105469 222.628906 159.402344 221.640625 159.800781 220.683594 C 160.199219 219.726562 160.683594 218.816406 161.261719 217.953125 C 161.835938 217.089844 162.492188 216.292969 163.222656 215.558594 C 163.957031 214.828125 164.753906 214.171875 165.617188 213.597656 C 166.480469 213.019531 167.390625 212.535156 168.347656 212.136719 C 169.304688 211.738281 170.292969 211.441406 171.308594 211.238281 C 172.328125 211.035156 173.355469 210.933594 174.390625 210.933594 C 175.429688 210.933594 176.453125 211.035156 177.472656 211.238281 C 178.488281 211.441406 179.476562 211.738281 180.433594 212.136719 C 181.394531 212.535156 182.304688 213.019531 183.164062 213.597656 C 184.027344 214.171875 184.824219 214.828125 185.558594 215.558594 C 186.292969 216.292969 186.945312 217.089844 187.523438 217.953125 C 188.097656 218.816406 188.585938 219.726562 188.980469 220.683594 C 189.378906 221.640625 189.679688 222.628906 189.878906 223.644531 C 190.082031 224.664062 190.183594 225.691406 190.183594 226.726562 Z M 190.183594 226.726562 " fill-opacity="1" fill-rule="nonzero"/><path fill="#f8d50a" d="M 347.3125 226.726562 C 347.3125 227.765625 347.210938 228.792969 347.011719 229.808594 C 346.808594 230.824219 346.507812 231.8125 346.113281 232.769531 C 345.714844 233.730469 345.226562 234.640625 344.652344 235.5 C 344.074219 236.363281 343.421875 237.160156 342.6875 237.894531 C 341.953125 238.628906 341.15625 239.28125 340.296875 239.859375 C 339.433594 240.433594 338.523438 240.921875 337.566406 241.316406 C 336.605469 241.714844 335.617188 242.015625 334.601562 242.214844 C 333.585938 242.417969 332.558594 242.519531 331.519531 242.519531 C 330.484375 242.519531 329.457031 242.417969 328.441406 242.214844 C 327.421875 242.015625 326.433594 241.714844 325.476562 241.316406 C 324.519531 240.921875 323.609375 240.433594 322.746094 239.859375 C 321.886719 239.28125 321.085938 238.628906 320.355469 237.894531 C 319.621094 237.160156 318.964844 236.363281 318.390625 235.5 C 317.8125 234.640625 317.328125 233.730469 316.929688 232.769531 C 316.535156 231.8125 316.234375 230.824219 316.03125 229.808594 C 315.828125 228.792969 315.726562 227.765625 315.726562 226.726562 C 315.726562 225.691406 315.828125 224.664062 316.03125 223.644531 C 316.234375 222.628906 316.535156 221.640625 316.929688 220.683594 C 317.328125 219.726562 317.8125 218.816406 318.390625 217.953125 C 318.964844 217.089844 319.621094 216.292969 320.355469 215.558594 C 321.085938 214.828125 321.886719 214.171875 322.746094 213.597656 C 323.609375 213.019531 324.519531 212.535156 325.476562 212.136719 C 326.433594 211.738281 327.421875 211.441406 328.441406 211.238281 C 329.457031 211.035156 330.484375 210.933594 331.519531 210.933594 C 332.558594 210.933594 333.585938 211.035156 334.601562 211.238281 C 335.621094 211.441406 336.605469 211.738281 337.566406 212.136719 C 338.523438 212.535156 339.433594 213.019531 340.296875 213.597656 C 341.15625 214.171875 341.953125 214.828125 342.6875 215.558594 C 343.421875 216.292969 344.078125 217.089844 344.652344 217.953125 C 345.226562 218.816406 345.714844 219.726562 346.113281 220.683594 C 346.507812 221.640625 346.808594 222.628906 347.011719 223.644531 C 347.210938 224.664062 347.3125 225.691406 347.3125 226.726562 Z M 347.3125 226.726562 " fill-opacity="1" fill-rule="nonzero"/><path fill="#f8ad0a" d="M 252.875 322.28125 C 209.484375 322.28125 174.230469 287.027344 174.230469 243.636719 L 174.230469 214.761719 C 174.230469 171.371094 209.484375 136.117188 252.875 136.117188 C 296.265625 136.117188 331.519531 171.371094 331.519531 214.761719 L 331.519531 243.796875 C 331.519531 287.027344 296.265625 322.28125 252.875 322.28125 Z M 252.875 322.28125 " fill-opacity="1" fill-rule="nonzero"/><path fill="#f8690a" d="M 198.320312 243.636719 L 198.320312 214.761719 C 198.320312 175.359375 227.191406 142.816406 265 137.074219 C 261.171875 136.4375 257.183594 136.117188 253.035156 136.117188 C 209.644531 136.117188 174.390625 171.371094 174.390625 214.761719 L 174.390625 243.796875 C 174.390625 287.1875 209.644531 322.441406 253.035156 322.441406 C 257.183594 322.441406 261.171875 322.121094 265 321.484375 C 227.191406 315.582031 198.320312 283.039062 198.320312 243.636719 Z M 198.320312 243.636719 " fill-opacity="1" fill-rule="nonzero"/><path fill="#392a79" d="M 229.746094 244.914062 C 229.746094 245.414062 229.695312 245.914062 229.597656 246.40625 C 229.5 246.898438 229.355469 247.378906 229.164062 247.84375 C 228.96875 248.308594 228.734375 248.75 228.453125 249.167969 C 228.175781 249.585938 227.859375 249.972656 227.503906 250.328125 C 227.148438 250.683594 226.761719 251 226.34375 251.28125 C 225.925781 251.558594 225.484375 251.792969 225.019531 251.988281 C 224.554688 252.179688 224.074219 252.324219 223.582031 252.421875 C 223.089844 252.519531 222.589844 252.570312 222.089844 252.570312 C 221.585938 252.570312 221.085938 252.519531 220.59375 252.421875 C 220.101562 252.324219 219.621094 252.179688 219.15625 251.988281 C 218.695312 251.792969 218.253906 251.558594 217.835938 251.28125 C 217.417969 251 217.03125 250.683594 216.675781 250.328125 C 216.320312 249.972656 216 249.585938 215.722656 249.167969 C 215.441406 248.75 215.207031 248.308594 215.015625 247.84375 C 214.820312 247.378906 214.675781 246.898438 214.578125 246.40625 C 214.480469 245.914062 214.429688 245.414062 214.429688 244.914062 C 214.429688 244.410156 214.480469 243.910156 214.578125 243.417969 C 214.675781 242.925781 214.820312 242.445312 215.015625 241.984375 C 215.207031 241.519531 215.441406 241.078125 215.722656 240.660156 C 216 240.242188 216.320312 239.855469 216.675781 239.5 C 217.03125 239.144531 217.417969 238.824219 217.835938 238.546875 C 218.253906 238.265625 218.695312 238.03125 219.15625 237.839844 C 219.621094 237.644531 220.101562 237.5 220.59375 237.402344 C 221.085938 237.304688 221.585938 237.253906 222.089844 237.253906 C 222.589844 237.253906 223.089844 237.304688 223.582031 237.402344 C 224.074219 237.5 224.554688 237.644531 225.019531 237.839844 C 225.484375 238.03125 225.925781 238.265625 226.34375 238.546875 C 226.761719 238.824219 227.148438 239.144531 227.503906 239.5 C 227.859375 239.855469 228.175781 240.242188 228.453125 240.660156 C 228.734375 241.078125 228.96875 241.519531 229.164062 241.984375 C 229.355469 242.445312 229.5 242.925781 229.597656 243.417969 C 229.695312 243.910156 229.746094 244.410156 229.746094 244.914062 Z M 229.746094 244.914062 " fill-opacity="1" fill-rule="nonzero"/><path fill="#392a79" d="M 292.117188 244.914062 C 292.117188 245.414062 292.070312 245.914062 291.972656 246.40625 C 291.875 246.898438 291.726562 247.378906 291.535156 247.84375 C 291.34375 248.308594 291.109375 248.75 290.828125 249.167969 C 290.550781 249.585938 290.230469 249.972656 289.875 250.328125 C 289.519531 250.683594 289.132812 251 288.714844 251.28125 C 288.296875 251.558594 287.855469 251.792969 287.390625 251.988281 C 286.925781 252.179688 286.449219 252.324219 285.957031 252.421875 C 285.460938 252.519531 284.964844 252.570312 284.460938 252.570312 C 283.960938 252.570312 283.460938 252.519531 282.96875 252.421875 C 282.476562 252.324219 281.996094 252.179688 281.53125 251.988281 C 281.066406 251.792969 280.625 251.558594 280.207031 251.28125 C 279.789062 251 279.402344 250.683594 279.046875 250.328125 C 278.691406 249.972656 278.375 249.585938 278.09375 249.167969 C 277.816406 248.75 277.578125 248.308594 277.386719 247.84375 C 277.195312 247.378906 277.050781 246.898438 276.953125 246.40625 C 276.855469 245.914062 276.804688 245.414062 276.804688 244.914062 C 276.804688 244.410156 276.855469 243.910156 276.953125 243.417969 C 277.050781 242.925781 277.195312 242.445312 277.386719 241.984375 C 277.578125 241.519531 277.816406 241.078125 278.09375 240.660156 C 278.375 240.242188 278.691406 239.855469 279.046875 239.5 C 279.402344 239.144531 279.789062 238.824219 280.207031 238.546875 C 280.625 238.265625 281.066406 238.03125 281.53125 237.839844 C 281.996094 237.644531 282.476562 237.5 282.96875 237.402344 C 283.460938 237.304688 283.960938 237.253906 284.460938 237.253906 C 284.964844 237.253906 285.460938 237.304688 285.957031 237.402344 C 286.449219 237.5 286.925781 237.644531 287.390625 237.839844 C 287.855469 238.03125 288.296875 238.265625 288.714844 238.546875 C 289.132812 238.824219 289.519531 239.144531 289.875 239.5 C 290.230469 239.855469 290.550781 240.242188 290.828125 240.660156 C 291.109375 241.078125 291.34375 241.519531 291.535156 241.984375 C 291.726562 242.445312 291.875 242.925781 291.972656 243.417969 C 292.070312 243.910156 292.117188 244.410156 292.117188 244.914062 Z M 292.117188 244.914062 " fill-opacity="1" fill-rule="nonzero"/><path fill="#392a79" d="M 259.578125 412.890625 C 259.578125 413.332031 259.535156 413.765625 259.449219 414.199219 C 259.363281 414.628906 259.234375 415.046875 259.066406 415.453125 C 258.898438 415.859375 258.691406 416.246094 258.445312 416.613281 C 258.203125 416.976562 257.925781 417.316406 257.613281 417.628906 C 257.304688 417.9375 256.964844 418.214844 256.597656 418.460938 C 256.234375 418.707031 255.847656 418.910156 255.441406 419.082031 C 255.035156 419.25 254.613281 419.375 254.183594 419.460938 C 253.75 419.546875 253.316406 419.589844 252.875 419.589844 C 252.4375 419.589844 252 419.546875 251.570312 419.460938 C 251.136719 419.375 250.71875 419.25 250.3125 419.082031 C 249.90625 418.910156 249.519531 418.707031 249.152344 418.460938 C 248.789062 418.214844 248.449219 417.9375 248.140625 417.628906 C 247.828125 417.316406 247.550781 416.976562 247.304688 416.613281 C 247.0625 416.246094 246.855469 415.859375 246.6875 415.453125 C 246.519531 415.046875 246.390625 414.628906 246.304688 414.199219 C 246.21875 413.765625 246.175781 413.332031 246.175781 412.890625 C 246.175781 412.449219 246.21875 412.015625 246.304688 411.582031 C 246.390625 411.152344 246.519531 410.734375 246.6875 410.328125 C 246.855469 409.917969 247.0625 409.535156 247.304688 409.167969 C 247.550781 408.800781 247.828125 408.464844 248.140625 408.152344 C 248.449219 407.839844 248.789062 407.5625 249.152344 407.320312 C 249.519531 407.074219 249.90625 406.867188 250.3125 406.699219 C 250.71875 406.53125 251.136719 406.40625 251.570312 406.320312 C 252 406.234375 252.4375 406.191406 252.875 406.191406 C 253.316406 406.191406 253.75 406.234375 254.183594 406.320312 C 254.613281 406.40625 255.035156 406.53125 255.441406 406.699219 C 255.847656 406.867188 256.234375 407.074219 256.597656 407.320312 C 256.964844 407.5625 257.304688 407.839844 257.613281 408.152344 C 257.925781 408.464844 258.203125 408.800781 258.445312 409.167969 C 258.691406 409.535156 258.898438 409.917969 259.066406 410.328125 C 259.234375 410.734375 259.363281 411.152344 259.449219 411.582031 C 259.535156 412.015625 259.578125 412.449219 259.578125 412.890625 Z M 259.578125 412.890625 " fill-opacity="1" fill-rule="nonzero"/><path fill="#392a79" d="M 259.578125 444.15625 C 259.578125 444.597656 259.535156 445.03125 259.449219 445.464844 C 259.363281 445.894531 259.234375 446.3125 259.066406 446.722656 C 258.898438 447.128906 258.691406 447.511719 258.445312 447.878906 C 258.203125 448.246094 257.925781 448.582031 257.613281 448.894531 C 257.304688 449.207031 256.964844 449.484375 256.597656 449.726562 C 256.234375 449.972656 255.847656 450.179688 255.441406 450.347656 C 255.035156 450.515625 254.613281 450.640625 254.183594 450.726562 C 253.75 450.8125 253.316406 450.855469 252.875 450.855469 C 252.4375 450.855469 252 450.8125 251.570312 450.726562 C 251.136719 450.640625 250.71875 450.515625 250.3125 450.347656 C 249.90625 450.179688 249.519531 449.972656 249.152344 449.726562 C 248.789062 449.484375 248.449219 449.207031 248.140625 448.894531 C 247.828125 448.582031 247.550781 448.246094 247.304688 447.878906 C 247.0625 447.511719 246.855469 447.128906 246.6875 446.722656 C 246.519531 446.3125 246.390625 445.894531 246.304688 445.464844 C 246.21875 445.03125 246.175781 444.597656 246.175781 444.15625 C 246.175781 443.71875 246.21875 443.28125 246.304688 442.851562 C 246.390625 442.417969 246.519531 442 246.6875 441.59375 C 246.855469 441.1875 247.0625 440.800781 247.304688 440.433594 C 247.550781 440.070312 247.828125 439.730469 248.140625 439.417969 C 248.449219 439.109375 248.789062 438.832031 249.152344 438.585938 C 249.519531 438.339844 249.90625 438.136719 250.3125 437.96875 C 250.71875 437.796875 251.136719 437.671875 251.570312 437.585938 C 252 437.5 252.4375 437.457031 252.875 437.457031 C 253.316406 437.457031 253.75 437.5 254.183594 437.585938 C 254.613281 437.671875 255.035156 437.796875 255.441406 437.96875 C 255.847656 438.136719 256.234375 438.339844 256.597656 438.585938 C 256.964844 438.832031 257.304688 439.109375 257.613281 439.417969 C 257.925781 439.730469 258.203125 440.070312 258.445312 440.433594 C 258.691406 440.800781 258.898438 441.1875 259.066406 441.59375 C 259.234375 442 259.363281 442.417969 259.449219 442.851562 C 259.535156 443.28125 259.578125 443.71875 259.578125 444.15625 Z M 259.578125 444.15625 " fill-opacity="1" fill-rule="nonzero"/><path fill="#392a79" d="M 259.578125 475.421875 C 259.578125 475.863281 259.535156 476.300781 259.449219 476.730469 C 259.363281 477.160156 259.234375 477.582031 259.066406 477.988281 C 258.898438 478.394531 258.691406 478.78125 258.445312 479.144531 C 258.203125 479.511719 257.925781 479.851562 257.613281 480.160156 C 257.304688 480.472656 256.964844 480.75 256.597656 480.992188 C 256.234375 481.238281 255.847656 481.445312 255.441406 481.613281 C 255.035156 481.78125 254.613281 481.910156 254.183594 481.996094 C 253.75 482.082031 253.316406 482.125 252.875 482.125 C 252.4375 482.125 252 482.082031 251.570312 481.996094 C 251.136719 481.910156 250.71875 481.78125 250.3125 481.613281 C 249.90625 481.445312 249.519531 481.238281 249.152344 480.992188 C 248.789062 480.75 248.449219 480.472656 248.140625 480.160156 C 247.828125 479.851562 247.550781 479.511719 247.304688 479.144531 C 247.0625 478.78125 246.855469 478.394531 246.6875 477.988281 C 246.519531 477.582031 246.390625 477.160156 246.304688 476.730469 C 246.21875 476.300781 246.175781 475.863281 246.175781 475.421875 C 246.175781 474.984375 246.21875 474.546875 246.304688 474.117188 C 246.390625 473.683594 246.519531 473.265625 246.6875 472.859375 C 246.855469 472.453125 247.0625 472.066406 247.304688 471.699219 C 247.550781 471.335938 247.828125 470.996094 248.140625 470.6875 C 248.449219 470.375 248.789062 470.097656 249.152344 469.851562 C 249.519531 469.609375 249.90625 469.402344 250.3125 469.234375 C 250.71875 469.066406 251.136719 468.9375 251.570312 468.851562 C 252 468.765625 252.4375 468.722656 252.875 468.722656 C 253.316406 468.722656 253.75 468.765625 254.183594 468.851562 C 254.613281 468.9375 255.035156 469.066406 255.441406 469.234375 C 255.847656 469.402344 256.234375 469.609375 256.597656 469.851562 C 256.964844 470.097656 257.304688 470.375 257.613281 470.6875 C 257.925781 470.996094 258.203125 471.335938 258.445312 471.699219 C 258.691406 472.066406 258.898438 472.453125 259.066406 472.859375 C 259.234375 473.265625 259.363281 473.683594 259.449219 474.117188 C 259.535156 474.546875 259.578125 474.984375 259.578125 475.421875 Z M 259.578125 475.421875 " fill-opacity="1" fill-rule="nonzero"/><path fill="#cebab9" d="M 234.050781 341.105469 L 252.875 369.980469 L 220.492188 382.261719 L 221.609375 338.550781 L 234.050781 330.894531 Z M 234.050781 341.105469 " fill-opacity="1" fill-rule="nonzero"/><path fill="#cebab9" d="M 271.859375 341.105469 L 252.875 369.980469 L 285.417969 382.261719 L 284.300781 338.550781 L 271.859375 330.894531 Z M 271.859375 341.105469 " fill-opacity="1" fill-rule="nonzero"/><path fill="#706565" d="M 302.167969 185.089844 L 317.003906 220.347656 L 331.519531 220.347656 L 331.519531 198.332031 C 331.519531 185.730469 327.691406 173.605469 320.671875 163.238281 Z M 302.167969 185.089844 " fill-opacity="1" fill-rule="nonzero"/><path fill="#706565" d="M 174.390625 220.347656 L 191.300781 220.347656 L 199.914062 188.28125 C 199.914062 188.28125 250.960938 212.847656 300.09375 191.3125 C 317.484375 183.65625 328.808594 166.269531 328.808594 147.285156 L 328.808594 133.886719 C 328.808594 129.097656 324.980469 125.429688 320.355469 125.429688 L 220.015625 125.429688 C 194.808594 125.429688 174.390625 145.847656 174.390625 171.054688 C 174.390625 171.054688 174.390625 220.347656 174.390625 220.347656 Z M 174.390625 220.347656 " fill-opacity="1" fill-rule="nonzero"/><path fill="#5b5252" d="M 243.941406 125.429688 L 220.015625 125.429688 C 194.808594 125.429688 174.390625 145.847656 174.390625 171.054688 L 174.390625 220.347656 L 191.300781 220.347656 L 198.320312 194.34375 L 198.320312 171.054688 C 198.320312 145.847656 218.738281 125.429688 243.941406 125.429688 Z M 243.941406 125.429688 " fill-opacity="1" fill-rule="nonzero"/><path fill="#f8ad0a" d="M 449.726562 204.871094 L 461.691406 222.898438 C 464.5625 227.046875 469.507812 229.28125 474.453125 228.164062 L 495.671875 223.855469 C 504.445312 222.101562 512.101562 229.757812 510.347656 238.53125 L 506.039062 259.75 C 505.082031 264.695312 507.15625 269.796875 511.304688 272.511719 L 529.328125 284.472656 C 536.667969 289.417969 536.667969 300.265625 529.328125 305.210938 L 511.304688 317.175781 C 507.15625 320.046875 504.921875 324.992188 506.039062 329.9375 L 510.347656 351.15625 C 512.101562 359.929688 504.445312 367.585938 495.671875 365.832031 L 474.453125 361.523438 C 469.507812 360.566406 464.402344 362.640625 461.691406 366.789062 L 449.726562 384.8125 C 444.78125 392.152344 433.933594 392.152344 428.988281 384.8125 L 417.023438 366.789062 C 414.152344 362.640625 409.207031 360.40625 404.261719 361.523438 L 383.046875 365.832031 C 374.273438 367.585938 366.617188 359.929688 368.371094 351.15625 L 372.679688 329.9375 C 373.636719 324.992188 371.5625 319.886719 367.414062 317.175781 L 349.386719 305.210938 C 342.050781 300.265625 342.050781 289.417969 349.386719 284.472656 L 367.414062 272.511719 C 371.5625 269.640625 373.792969 264.695312 372.679688 259.75 L 368.371094 238.53125 C 366.617188 229.757812 374.273438 222.101562 383.046875 223.855469 L 404.261719 228.164062 C 409.207031 229.121094 414.3125 227.046875 417.023438 222.898438 L 428.988281 204.871094 C 433.933594 197.535156 444.78125 197.535156 449.726562 204.871094 Z M 449.726562 204.871094 " fill-opacity="1" fill-rule="nonzero"/><path fill="#f8d50a" d="M 529.488281 284.632812 L 511.464844 272.667969 C 507.316406 269.796875 505.082031 264.851562 506.199219 259.90625 L 510.503906 238.691406 C 512.261719 229.917969 504.601562 222.261719 495.828125 224.015625 L 482.429688 226.726562 C 485.78125 229.4375 487.535156 233.90625 486.578125 238.691406 L 482.269531 259.90625 C 481.3125 264.851562 483.386719 269.957031 487.535156 272.667969 L 505.5625 284.632812 C 512.898438 289.578125 512.898438 300.425781 505.5625 305.371094 L 487.535156 317.335938 C 483.386719 320.207031 481.152344 325.152344 482.269531 330.097656 L 486.578125 351.316406 C 487.535156 356.101562 485.621094 360.40625 482.429688 363.277344 L 495.828125 365.992188 C 504.601562 367.746094 512.261719 360.089844 510.503906 351.316406 L 506.199219 330.097656 C 505.242188 325.152344 507.316406 320.046875 511.464844 317.335938 L 529.488281 305.371094 C 536.828125 300.425781 536.828125 289.578125 529.488281 284.632812 Z M 529.488281 284.632812 " fill-opacity="1" fill-rule="nonzero"/><g clip-path="url(#b35ea7a8f5)"><path fill="#392a79" d="M 162.109375 526.3125 L 131.640625 526.3125 C 130.363281 526.3125 129.246094 527.429688 129.246094 528.703125 C 129.246094 529.980469 130.363281 531.097656 131.640625 531.097656 L 162.265625 531.097656 C 163.542969 531.097656 164.660156 529.980469 164.660156 528.703125 C 164.660156 527.429688 163.542969 526.3125 162.109375 526.3125 Z M 162.109375 526.3125 " fill-opacity="1" fill-rule="nonzero"/></g><g clip-path="url(#1c533ba190)"><path fill="#392a79" d="M 534.914062 526.3125 L 504.285156 526.3125 C 503.007812 526.3125 501.890625 527.429688 501.890625 528.703125 C 501.890625 529.980469 503.007812 531.097656 504.285156 531.097656 L 534.914062 531.097656 C 536.1875 531.097656 537.304688 529.980469 537.304688 528.703125 C 537.304688 527.429688 536.347656 526.3125 534.914062 526.3125 Z M 534.914062 526.3125 " fill-opacity="1" fill-rule="nonzero"/></g><g clip-path="url(#569a654e84)"><path fill="#392a79" d="M 487.054688 526.3125 L 179.496094 526.3125 C 178.21875 526.3125 177.101562 527.429688 177.101562 528.703125 C 177.101562 529.980469 178.21875 531.097656 179.496094 531.097656 L 487.054688 531.097656 C 488.332031 531.097656 489.449219 529.980469 489.449219 528.703125 C 489.449219 527.429688 488.332031 526.3125 487.054688 526.3125 Z M 487.054688 526.3125 " fill-opacity="1" fill-rule="nonzero"/></g><g clip-path="url(#b7cef7de0c)"><path fill="#392a79" d="M 534.914062 507.648438 L 369.804688 507.648438 L 369.804688 440.964844 C 369.804688 392.949219 334.234375 352.113281 286.855469 345.414062 L 286.695312 338.550781 C 286.695312 337.753906 286.214844 336.957031 285.578125 336.636719 L 274.253906 329.621094 L 274.253906 321.960938 C 308.230469 312.710938 333.433594 281.761719 333.914062 244.914062 C 342.847656 243.796875 349.707031 236.140625 349.707031 226.886719 C 349.707031 217.632812 342.847656 209.976562 333.914062 208.859375 L 333.914062 198.492188 C 333.914062 188.121094 331.363281 177.753906 326.574219 168.5 C 329.605469 161.960938 331.203125 154.78125 331.203125 147.445312 L 331.203125 133.886719 C 331.203125 127.824219 326.257812 123.039062 320.355469 123.039062 L 220.015625 123.039062 C 193.535156 123.039062 172 144.574219 172 171.054688 L 172 208.699219 C 163.066406 209.816406 156.207031 217.476562 156.207031 226.726562 C 156.207031 235.980469 163.066406 243.636719 172 244.753906 C 172.476562 281.601562 197.679688 312.550781 231.660156 321.804688 L 231.660156 329.460938 L 220.332031 336.480469 C 219.695312 336.957031 219.21875 337.59375 219.21875 338.394531 L 219.058594 345.253906 C 171.679688 351.953125 136.105469 392.949219 136.105469 440.808594 L 136.105469 507.488281 L 131.640625 507.488281 C 130.363281 507.488281 129.246094 508.605469 129.246094 509.878906 C 129.246094 511.15625 130.363281 512.273438 131.640625 512.273438 L 534.914062 512.273438 C 536.1875 512.273438 537.304688 511.15625 537.304688 509.878906 C 537.304688 508.605469 536.347656 507.648438 534.914062 507.648438 Z M 274.253906 335.203125 L 281.910156 339.988281 L 282.867188 378.910156 L 256.546875 368.863281 L 273.773438 342.382812 C 274.09375 342.0625 274.09375 341.582031 274.09375 341.105469 C 274.253906 341.105469 274.253906 335.203125 274.253906 335.203125 Z M 344.921875 226.726562 C 344.921875 233.265625 340.136719 238.851562 333.914062 239.96875 L 333.914062 213.644531 C 340.136719 214.601562 344.921875 220.1875 344.921875 226.726562 Z M 329.128906 198.332031 L 329.128906 217.953125 L 318.601562 217.953125 L 306.953125 190.355469 C 313.8125 186.046875 319.558594 180.304688 323.703125 173.445312 C 327.214844 181.261719 329.128906 189.71875 329.128906 198.332031 Z M 176.785156 171.054688 C 176.785156 147.125 196.085938 127.824219 220.015625 127.824219 L 320.195312 127.824219 C 323.546875 127.824219 326.257812 130.535156 326.257812 133.886719 L 326.257812 147.125 C 326.257812 165.3125 315.570312 181.742188 298.976562 189.078125 C 251.601562 209.976562 201.511719 186.367188 200.871094 186.046875 C 200.234375 185.730469 199.4375 185.730469 198.796875 186.046875 C 198.160156 186.367188 197.679688 186.847656 197.523438 187.644531 L 189.386719 217.953125 L 176.625 217.953125 L 176.625 214.761719 Z M 160.832031 226.726562 C 160.832031 220.1875 165.617188 214.601562 171.839844 213.488281 L 171.839844 239.808594 C 165.617188 238.691406 160.832031 233.265625 160.832031 226.726562 Z M 176.785156 243.636719 L 176.785156 222.738281 L 191.300781 222.738281 C 192.417969 222.738281 193.375 221.941406 193.535156 220.984375 L 201.511719 191.472656 C 212.675781 196.097656 257.820312 212.371094 301.050781 193.386719 C 301.691406 193.066406 302.167969 192.75 302.808594 192.589844 L 314.929688 221.304688 C 315.25 222.261719 316.207031 222.738281 317.164062 222.738281 L 329.289062 222.738281 L 329.289062 243.636719 C 329.289062 285.589844 295.148438 319.886719 253.035156 319.886719 C 210.921875 319.886719 176.785156 285.75 176.785156 243.636719 Z M 252.875 324.675781 C 258.460938 324.675781 264.042969 324.035156 269.464844 322.917969 L 269.464844 340.308594 L 252.875 365.671875 L 236.285156 340.308594 L 236.285156 322.917969 C 241.710938 324.035156 247.292969 324.675781 252.875 324.675781 Z M 223.84375 339.828125 L 231.5 335.042969 L 231.5 340.945312 C 231.5 341.425781 231.660156 341.902344 231.820312 342.222656 L 249.046875 368.703125 L 222.726562 378.753906 Z M 328.808594 507.648438 L 328.808594 432.511719 C 328.808594 431.234375 327.691406 430.117188 326.417969 430.117188 C 325.140625 430.117188 324.023438 431.234375 324.023438 432.511719 L 324.023438 507.648438 L 181.730469 507.648438 L 181.730469 432.511719 C 181.730469 431.234375 180.613281 430.117188 179.335938 430.117188 C 178.058594 430.117188 176.945312 431.234375 176.945312 432.511719 L 176.945312 507.648438 L 140.890625 507.648438 L 140.890625 440.964844 C 140.890625 395.660156 174.390625 356.898438 218.898438 350.199219 L 218.101562 382.261719 C 218.101562 383.058594 218.417969 383.855469 219.058594 384.335938 C 219.535156 384.65625 220.015625 384.8125 220.492188 384.8125 C 220.8125 384.8125 221.132812 384.8125 221.289062 384.65625 L 252.875 372.691406 L 284.460938 384.65625 C 284.78125 384.8125 285.101562 384.8125 285.257812 384.8125 C 285.738281 384.8125 286.214844 384.65625 286.695312 384.335938 C 287.332031 383.855469 287.652344 383.058594 287.652344 382.261719 L 287.015625 350.199219 C 331.679688 356.898438 365.019531 395.503906 365.019531 440.964844 L 365.019531 507.648438 Z M 328.808594 507.648438 " fill-opacity="1" fill-rule="nonzero"/></g><path fill="#392a79" d="M 252.875 271.074219 C 254.152344 271.074219 255.269531 269.957031 255.269531 268.683594 L 255.269531 255.917969 C 255.269531 254.644531 254.152344 253.527344 252.875 253.527344 C 251.601562 253.527344 250.484375 254.644531 250.484375 255.917969 L 250.484375 268.683594 C 250.484375 270.117188 251.601562 271.074219 252.875 271.074219 Z M 252.875 271.074219 " fill-opacity="1" fill-rule="nonzero"/><path fill="#392a79" d="M 231.660156 226.726562 L 211.71875 226.726562 C 210.441406 226.726562 209.328125 227.84375 209.328125 229.121094 C 209.328125 230.394531 210.441406 231.511719 211.71875 231.511719 L 231.820312 231.511719 C 233.09375 231.511719 234.210938 230.394531 234.210938 229.121094 C 234.210938 227.84375 232.9375 226.726562 231.660156 226.726562 Z M 231.660156 226.726562 " fill-opacity="1" fill-rule="nonzero"/><path fill="#392a79" d="M 274.09375 231.511719 L 294.191406 231.511719 C 295.46875 231.511719 296.585938 230.394531 296.585938 229.121094 C 296.585938 227.84375 295.46875 226.726562 294.191406 226.726562 L 274.09375 226.726562 C 272.816406 226.726562 271.699219 227.84375 271.699219 229.121094 C 271.699219 230.394531 272.816406 231.511719 274.09375 231.511719 Z M 274.09375 231.511719 " fill-opacity="1" fill-rule="nonzero"/><path fill="#392a79" d="M 265 286.390625 C 265.796875 285.429688 265.796875 283.835938 264.839844 283.039062 C 263.882812 282.242188 262.289062 282.242188 261.492188 283.199219 C 259.257812 285.75 256.226562 287.027344 252.875 287.027344 C 249.527344 287.027344 246.496094 285.589844 244.261719 283.199219 C 243.464844 282.242188 241.871094 282.082031 240.910156 283.039062 C 239.953125 283.835938 239.796875 285.429688 240.753906 286.390625 C 243.785156 289.898438 248.25 291.972656 252.875 291.972656 C 257.503906 291.972656 261.96875 289.898438 265 286.390625 Z M 265 286.390625 " fill-opacity="1" fill-rule="nonzero"/><path fill="#392a79" d="M 370.285156 260.386719 C 371.082031 264.375 369.488281 268.523438 365.976562 270.753906 L 347.953125 282.71875 C 343.804688 285.429688 341.410156 290.058594 341.410156 295.003906 C 341.410156 299.949219 343.964844 304.574219 347.953125 307.285156 L 365.976562 319.25 C 369.328125 321.484375 371.082031 325.632812 370.285156 329.621094 L 365.976562 350.835938 C 365.019531 355.78125 366.457031 360.726562 369.964844 364.234375 C 373.476562 367.746094 378.582031 369.339844 383.367188 368.222656 L 404.582031 363.917969 C 408.570312 363.121094 412.71875 364.714844 414.953125 368.222656 L 426.914062 386.25 C 429.628906 390.398438 434.253906 392.789062 439.199219 392.789062 C 444.144531 392.789062 448.769531 390.238281 451.480469 386.25 L 463.445312 368.222656 C 465.679688 364.875 469.828125 363.121094 473.816406 363.917969 L 495.03125 368.222656 C 499.976562 369.179688 504.921875 367.746094 508.433594 364.234375 C 511.941406 360.726562 513.535156 355.78125 512.421875 350.835938 L 508.113281 329.621094 C 507.316406 325.632812 508.910156 321.484375 512.421875 319.25 L 530.445312 307.285156 C 534.59375 304.574219 536.988281 299.949219 536.988281 295.003906 C 536.988281 290.058594 534.433594 285.429688 530.445312 282.71875 L 512.421875 270.753906 C 509.070312 268.523438 507.316406 264.375 508.113281 260.386719 L 512.421875 239.167969 C 513.378906 234.226562 511.941406 229.28125 508.433594 225.769531 C 504.921875 222.261719 499.976562 220.664062 495.03125 221.78125 L 473.816406 226.089844 C 469.828125 226.886719 465.679688 225.292969 463.445312 221.78125 L 451.480469 203.753906 C 448.769531 199.609375 444.144531 197.054688 439.199219 197.054688 C 434.253906 197.054688 429.628906 199.609375 426.914062 203.753906 L 414.953125 221.78125 C 412.71875 225.132812 408.570312 226.886719 404.582031 226.089844 L 383.367188 221.78125 C 378.421875 220.824219 373.476562 222.261719 369.964844 225.769531 C 366.457031 229.28125 364.863281 234.226562 365.976562 239.167969 Z M 373.316406 229.121094 C 375.707031 226.726562 379.058594 225.769531 382.410156 226.40625 L 403.625 230.714844 C 409.527344 231.992188 415.589844 229.4375 418.941406 224.335938 L 430.902344 206.308594 C 432.816406 203.4375 435.847656 201.839844 439.199219 201.839844 C 442.550781 201.839844 445.738281 203.4375 447.496094 206.308594 L 459.457031 224.335938 C 462.808594 229.4375 468.871094 231.832031 474.773438 230.714844 L 495.988281 226.40625 C 499.339844 225.769531 502.6875 226.726562 505.082031 229.121094 C 507.476562 231.511719 508.433594 234.863281 507.792969 238.210938 L 503.488281 259.429688 C 502.210938 265.332031 504.761719 271.394531 509.867188 274.742188 L 527.894531 286.707031 C 530.765625 288.621094 532.359375 291.652344 532.359375 295.003906 C 532.359375 298.351562 530.765625 301.542969 527.894531 303.296875 L 509.867188 315.261719 C 504.761719 318.613281 502.371094 324.675781 503.488281 330.578125 L 507.792969 351.792969 C 508.433594 355.144531 507.476562 358.492188 505.082031 360.886719 C 502.6875 363.277344 499.339844 364.234375 495.988281 363.597656 L 474.773438 359.289062 C 468.871094 358.015625 462.808594 360.566406 459.457031 365.671875 L 447.496094 383.699219 C 445.578125 386.570312 442.550781 388.164062 439.199219 388.164062 C 435.847656 388.164062 432.660156 386.570312 430.902344 383.699219 L 418.941406 365.671875 C 416.226562 361.523438 411.601562 358.972656 406.65625 358.972656 C 405.699219 358.972656 404.742188 359.132812 403.625 359.289062 L 382.410156 363.597656 C 379.058594 364.234375 375.707031 363.277344 373.316406 360.886719 C 370.921875 358.492188 369.964844 355.144531 370.605469 351.792969 L 374.910156 330.578125 C 376.1875 324.675781 373.636719 318.613281 368.53125 315.261719 L 350.503906 303.296875 C 347.632812 301.382812 346.039062 298.351562 346.039062 295.003906 C 346.039062 291.652344 347.632812 288.460938 350.503906 286.707031 L 368.53125 274.742188 C 373.636719 271.394531 376.027344 265.332031 374.910156 259.429688 L 370.605469 238.210938 C 369.964844 234.703125 370.921875 231.511719 373.316406 229.121094 Z M 373.316406 229.121094 " fill-opacity="1" fill-rule="nonzero"/><path fill="#392a79" d="M 430.105469 317.335938 L 451.640625 317.335938 C 452.917969 317.335938 454.035156 316.21875 454.035156 314.941406 C 454.035156 313.667969 452.917969 312.550781 451.640625 312.550781 L 432.5 312.550781 L 432.5 292.769531 L 443.984375 292.769531 C 445.261719 292.769531 446.378906 291.652344 446.378906 290.375 C 446.378906 289.101562 445.261719 287.984375 443.984375 287.984375 L 432.5 287.984375 L 432.5 277.457031 L 451.640625 277.457031 C 452.917969 277.457031 454.035156 276.339844 454.035156 275.0625 C 454.035156 273.785156 452.917969 272.667969 451.640625 272.667969 L 430.105469 272.667969 C 428.828125 272.667969 427.714844 273.785156 427.714844 275.0625 L 427.714844 315.101562 C 427.714844 316.378906 428.671875 317.335938 430.105469 317.335938 Z M 430.105469 317.335938 " fill-opacity="1" fill-rule="nonzero"/><path fill="#392a79" d="M 390.703125 317.335938 C 391.980469 317.335938 393.097656 316.21875 393.097656 314.941406 L 393.097656 284.472656 L 410.164062 316.058594 C 410.644531 316.859375 411.441406 317.335938 412.238281 317.335938 C 412.398438 317.335938 412.558594 317.335938 412.878906 317.335938 C 413.996094 317.015625 414.632812 316.058594 414.632812 314.941406 L 414.632812 275.0625 C 414.632812 273.785156 413.515625 272.667969 412.238281 272.667969 C 410.964844 272.667969 409.847656 273.785156 409.847656 275.0625 L 409.847656 305.53125 L 392.777344 273.945312 C 392.300781 272.988281 391.183594 272.511719 390.066406 272.828125 C 388.949219 273.148438 388.3125 274.105469 388.3125 275.222656 L 388.3125 315.261719 C 388.3125 316.378906 389.429688 317.335938 390.703125 317.335938 Z M 390.703125 317.335938 " fill-opacity="1" fill-rule="nonzero"/><path fill="#392a79" d="M 471.582031 317.335938 C 472.539062 317.65625 473.65625 317.175781 474.132812 316.378906 L 482.910156 303.777344 L 491.683594 316.378906 C 492.160156 317.015625 492.796875 317.335938 493.597656 317.335938 C 493.757812 317.335938 494.074219 317.335938 494.234375 317.175781 C 495.191406 316.859375 495.988281 316.058594 495.988281 315.101562 L 499.019531 275.0625 C 499.179688 273.785156 498.0625 272.667969 496.785156 272.511719 C 495.511719 272.351562 494.394531 273.46875 494.234375 274.742188 L 491.683594 308.082031 L 484.824219 298.195312 C 483.867188 296.917969 481.792969 296.917969 480.835938 298.195312 L 473.976562 308.082031 L 471.421875 274.742188 C 471.261719 273.46875 470.144531 272.511719 468.871094 272.511719 C 467.59375 272.667969 466.636719 273.785156 466.636719 275.0625 L 469.667969 315.101562 C 469.988281 316.21875 470.625 317.015625 471.582031 317.335938 Z M 471.582031 317.335938 " fill-opacity="1" fill-rule="nonzero"/></svg>